<svg width="207" height="249" viewBox="0 0 207 249" fill="none" xmlns="http://www.w3.org/2000/svg">
<g filter="url(#filter0_n_34_88)">
<path d="M17.0061 55.6026C14.5322 29.394 139.325 -2.5985 143.921 21.1807L148.37 37.5851L159.594 34.541L165.214 55.2617L154.692 60.896L182.983 195.962C180.672 221.614 80.0533 247.05 69.8824 226.637L27.7778 95.3179L14.9882 96.0061L9.36825 75.2853L20.987 70.2803L17.0061 55.6026Z" fill="url(#paint0_linear_34_88)"/>
<path d="M78.0676 20.613C93.7515 16.4747 109.615 13.9064 121.809 13.8421C127.915 13.8099 133.025 14.4064 136.715 15.7011C140.416 16.9993 142.463 18.9067 142.939 21.3703L142.946 21.4069L147.667 38.8122L158.891 35.7679L164.041 54.7558L154.22 60.0146L153.56 60.3677L153.714 61.1012L181.972 196.013C181.671 198.86 180.02 201.812 177.156 204.789C174.253 207.807 170.181 210.77 165.27 213.579C155.451 219.196 142.427 224.115 129.126 227.607C115.824 231.099 102.313 233.148 91.5279 233.064C86.1319 233.022 81.4709 232.445 77.876 231.28C74.2981 230.121 71.9193 228.429 70.8065 226.248L28.7297 95.0127L28.4941 94.2782L27.724 94.3191L15.7415 94.9635L10.5604 75.8607L21.3824 71.1983L22.1789 70.8558L17.9953 55.4307C17.7593 52.598 19.2121 49.533 22.2839 46.3144C25.3697 43.0812 29.9622 39.8311 35.6305 36.6983C46.9585 30.4377 62.3853 24.7508 78.0676 20.613Z" stroke="black" stroke-width="2"/>
</g>
<g filter="url(#filter1_g_34_88)">
<path d="M35.8408 107.96C82.078 99.6046 107.413 92.7491 151.532 76.5826L167.92 147.259C124.887 167.456 105.167 171.037 57.7932 175.23L35.8408 107.96Z" fill="#868686"/>
</g>
<g clip-path="url(#clip0_34_88)">
<path opacity="0.81" d="M66.9917 123.691L85.4712 97.9483L92.3667 95.7217L66.6901 131.09L66.9917 123.691Z" fill="#F87783" fill-opacity="0.16"/>
<path opacity="0.81" d="M67.4329 137.102L97.7736 94.5083L103.532 93.8757L68.3825 142.825L67.4329 137.102Z" fill="#F87783" fill-opacity="0.16"/>
<path opacity="0.81" d="M70.4181 146.642L108.049 94.2151L112.287 95.1759L72.4847 150.646L70.4181 146.642Z" fill="#F87783" fill-opacity="0.16"/>
<path opacity="0.81" d="M75.244 154.216L116.453 96.4683L120.298 98.1331L78.0653 157.392L75.244 154.216Z" fill="#F87783" fill-opacity="0.16"/>
<path opacity="0.81" d="M81.2588 159.74L123.823 100.171L127.171 102.684L84.5043 162.015L81.2588 159.74Z" fill="#F87783" fill-opacity="0.16"/>
<path opacity="0.81" d="M88.1015 163.721L130.055 105.467L132.515 108.767L92.1327 165.355L88.1015 163.721Z" fill="#F87783" fill-opacity="0.16"/>
<path opacity="0.81" d="M96.4016 166.502L134.757 112.678L136.906 116.796L101.239 166.853L96.4016 166.502Z" fill="#F87783" fill-opacity="0.16"/>
<path opacity="0.81" d="M106.253 166.727L138.176 121.379L139.178 127.412L111.639 166.156L106.253 166.727Z" fill="#F87783" fill-opacity="0.16"/>
<path opacity="0.81" d="M118.204 163.856L139.528 133.745L136.992 144.581L127.551 157.965L118.204 163.856Z" fill="#F87783" fill-opacity="0.16"/>
<path d="M102.571 108.298C102.059 106.543 100.647 105.294 99.5087 106.48L88.9064 131.639C87.9873 134.198 88.3426 135.296 90.2656 136.763L103.319 145.492C102.047 140.458 100.93 135.54 99.562 134.332L96.6368 132.068L100.975 122.211L108.959 149.493L112.968 152.253C114.48 152.524 115.067 152.246 115.022 149.958L102.571 108.298Z" fill="url(#paint1_linear_34_88)"/>
<path d="M99.191 109.125C98.6517 107.376 99.6181 105.416 101.897 105.582L132.771 118.375C135.706 119.786 135.999 120.904 134.522 123.388L123.652 139.271C121.851 134.391 119.93 129.708 120.869 127.809L123.094 124.005L110.76 119.118L119.114 146.317L115.83 151.258C114.065 152.508 113.118 152.688 111.611 150.834L99.191 109.125Z" fill="url(#paint2_linear_34_88)"/>
<path d="M75.0203 121.857C75.2475 117.628 81.5085 115.073 84.4369 119.111L91.1646 142.195L104.819 138.213C111.343 136.311 113.016 146.557 107.545 147.568L88.0393 153.255C85.75 153.666 84.6618 153.279 83.3759 150.526L75.0203 121.857Z" fill="url(#paint3_linear_34_88)"/>
</g>
<g filter="url(#filter2_n_34_88)">
<path d="M13.9924 78.6649C48.527 69.2984 110.689 52.4386 156.448 40.028L160.194 53.8418C126.509 73.1737 56.9712 90.18 17.739 92.4787L13.9924 78.6649Z" fill="#2B2B2B"/>
</g>
<defs>
<filter id="filter0_n_34_88" x="9.36816" y="12.8404" width="173.615" height="221.225" filterUnits="userSpaceOnUse" color-interpolation-filters="sRGB">
<feFlood flood-opacity="0" result="BackgroundImageFix"/>
<feBlend mode="normal" in="SourceGraphic" in2="BackgroundImageFix" result="shape"/>
<feTurbulence type="fractalNoise" baseFrequency="0.38461539149284363 0.38461539149284363" stitchTiles="stitch" numOctaves="3" result="noise" seed="4061" />
<feColorMatrix in="noise" type="luminanceToAlpha" result="alphaNoise" />
<feComponentTransfer in="alphaNoise" result="coloredNoise1">
<feFuncA type="discrete" tableValues="1 1 1 1 1 1 1 1 1 1 1 1 1 1 1 1 1 1 1 1 1 1 1 1 1 1 1 1 1 1 1 1 1 1 1 1 1 1 1 1 1 1 1 1 1 1 1 1 1 1 1 0 0 0 0 0 0 0 0 0 0 0 0 0 0 0 0 0 0 0 0 0 0 0 0 0 0 0 0 0 0 0 0 0 0 0 0 0 0 0 0 0 0 0 0 0 0 0 0 0 "/>
</feComponentTransfer>
<feComposite operator="in" in2="shape" in="coloredNoise1" result="noise1Clipped" />
<feFlood flood-color="rgba(0, 0, 0, 0.25)" result="color1Flood" />
<feComposite operator="in" in2="noise1Clipped" in="color1Flood" result="color1" />
<feMerge result="effect1_noise_34_88">
<feMergeNode in="shape" />
<feMergeNode in="color1" />
</feMerge>
</filter>
<filter id="filter1_g_34_88" x="31.8408" y="72.5826" width="140.079" height="106.647" filterUnits="userSpaceOnUse" color-interpolation-filters="sRGB">
<feFlood flood-opacity="0" result="BackgroundImageFix"/>
<feBlend mode="normal" in="SourceGraphic" in2="BackgroundImageFix" result="shape"/>
<feTurbulence type="fractalNoise" baseFrequency="2 2" numOctaves="3" seed="3541" />
<feDisplacementMap in="shape" scale="8" xChannelSelector="R" yChannelSelector="G" result="displacedImage" width="100%" height="100%" />
<feMerge result="effect1_texture_34_88">
<feMergeNode in="displacedImage"/>
</feMerge>
</filter>
<filter id="filter2_n_34_88" x="13.9924" y="40.028" width="146.202" height="52.4507" filterUnits="userSpaceOnUse" color-interpolation-filters="sRGB">
<feFlood flood-opacity="0" result="BackgroundImageFix"/>
<feBlend mode="normal" in="SourceGraphic" in2="BackgroundImageFix" result="shape"/>
<feTurbulence type="fractalNoise" baseFrequency="2 2" stitchTiles="stitch" numOctaves="3" result="noise" seed="4698" />
<feColorMatrix in="noise" type="luminanceToAlpha" result="alphaNoise" />
<feComponentTransfer in="alphaNoise" result="coloredNoise1">
<feFuncA type="discrete" tableValues="1 1 1 1 1 1 1 1 1 1 1 1 1 1 1 1 1 1 1 1 1 1 1 1 1 1 1 1 1 1 1 1 1 1 1 1 1 1 1 1 1 1 1 1 1 1 1 1 1 1 1 0 0 0 0 0 0 0 0 0 0 0 0 0 0 0 0 0 0 0 0 0 0 0 0 0 0 0 0 0 0 0 0 0 0 0 0 0 0 0 0 0 0 0 0 0 0 0 0 0 "/>
</feComponentTransfer>
<feComposite operator="in" in2="shape" in="coloredNoise1" result="noise1Clipped" />
<feFlood flood-color="rgba(0, 0, 0, 0.25)" result="color1Flood" />
<feComposite operator="in" in2="noise1Clipped" in="color1Flood" result="color1" />
<feMerge result="effect1_noise_34_88">
<feMergeNode in="shape" />
<feMergeNode in="color1" />
</feMerge>
</filter>
<linearGradient id="paint0_linear_34_88" x1="75.1128" y1="20.3722" x2="131.432" y2="228.024" gradientUnits="userSpaceOnUse">
<stop stop-color="#C9C3C3"/>
<stop offset="0.160193" stop-color="#595959"/>
<stop offset="0.1773" stop-color="#4E4D4D"/>
<stop offset="0.272167" stop-color="#323232"/>
<stop offset="0.317268" stop-color="#3F3E3E"/>
<stop offset="1" stop-color="#636060"/>
</linearGradient>
<linearGradient id="paint1_linear_34_88" x1="89.8962" y1="113.176" x2="109.55" y2="133.289" gradientUnits="userSpaceOnUse">
<stop stop-color="#D60F1D"/>
<stop offset="0.5" stop-color="#87040D"/>
<stop offset="1" stop-color="#430206"/>
</linearGradient>
<linearGradient id="paint2_linear_34_88" x1="113.389" y1="101.924" x2="114.05" y2="164.615" gradientUnits="userSpaceOnUse">
<stop/>
<stop offset="0.698122" stop-color="#250104"/>
<stop offset="1" stop-color="#70080F"/>
</linearGradient>
<linearGradient id="paint3_linear_34_88" x1="79.0604" y1="144.795" x2="111.495" y2="151.605" gradientUnits="userSpaceOnUse">
<stop stop-color="#08693B"/>
<stop offset="1" stop-color="#10CF74"/>
</linearGradient>
<clipPath id="clip0_34_88">
<rect width="85.8774" height="85.8774" fill="white" transform="translate(50.4448 100.292) rotate(-15.1748)"/>
</clipPath>
</defs>
</svg>
