<svg width="458" height="541" viewBox="0 0 458 541" fill="none" xmlns="http://www.w3.org/2000/svg">
<path d="M222.843 314.945C246.627 319.503 269.158 327.211 284.499 337.825C292.157 343.123 297.893 349.056 301.167 355.548C304.411 361.981 305.306 369.085 303.109 376.973L302.791 378.116L303.475 379.085L318.758 400.757L288.54 409.128L287.644 409.376L287.128 410.148L258.072 453.64L113.852 427.388C116.327 411.791 121.471 400.585 134.07 379.193L134.616 378.266L134.319 377.233L119.122 324.496C120.707 321.402 124.372 318.538 130.292 316.173C136.594 313.656 144.987 311.895 154.787 310.941C174.367 309.035 199.095 310.394 222.843 314.945Z" fill="#327F40" stroke="black" stroke-width="5"/>
<mask id="path-2-inside-1_34_89" fill="white">
<path d="M179.248 63.2123C179.248 63.2123 178.938 50.9586 183.457 40.0922C192.312 41.704 206.932 59.1036 218.783 58.2116C217.001 44.1585 218.443 36.9791 224.782 25.2531L257.244 53.5237C259.287 42.9563 261.931 38.3559 270.531 33.5806C269.807 44.5382 272.944 51.2879 277.636 58.7602C353.437 69.5088 353.022 130.419 343.441 183.054C366.605 189.812 358.946 245.846 343.069 252.104C338.977 288.905 328.676 299.552 303.21 311.933C277.744 324.314 250.392 320.106 250.392 320.106L178.75 311.639C136.909 304.933 107.697 269.229 113.878 224.106C97.5996 224.193 109.733 154.743 131.869 158.772C140.194 129.795 132.155 73.444 179.248 63.2123Z"/>
</mask>
<path d="M179.248 63.2123C179.248 63.2123 178.938 50.9586 183.457 40.0922C192.312 41.704 206.932 59.1036 218.783 58.2116C217.001 44.1585 218.443 36.9791 224.782 25.2531L257.244 53.5237C259.287 42.9563 261.931 38.3559 270.531 33.5806C269.807 44.5382 272.944 51.2879 277.636 58.7602C353.437 69.5088 353.022 130.419 343.441 183.054C366.605 189.812 358.946 245.846 343.069 252.104C338.977 288.905 328.676 299.552 303.21 311.933C277.744 324.314 250.392 320.106 250.392 320.106L178.75 311.639C136.909 304.933 107.697 269.229 113.878 224.106C97.5996 224.193 109.733 154.743 131.869 158.772C140.194 129.795 132.155 73.444 179.248 63.2123Z" fill="#462307"/>
<path d="M174.25 63.3389C177.582 63.2545 180.915 63.1701 184.247 63.0856C184.26 56.428 185.348 49.0331 187.742 42.8367C187.85 42.5602 187.96 42.2852 188.074 42.0121L182.562 45.0114C187.157 46.1666 194.221 52.476 201.079 56.8919C202.38 57.7395 203.735 58.5741 205.157 59.3586C208.97 61.3965 213.418 63.5361 219.158 63.1975L224.405 62.8025L223.743 57.5824C223.274 53.8659 222.973 50.2261 223.109 46.7689C223.273 40.1032 225.687 34.034 229.181 27.6311L221.499 29.0237C222.076 29.5263 222.653 30.0289 223.23 30.5316C228.813 35.3936 234.396 40.2557 239.979 45.1177C244.639 49.1765 249.3 53.2354 253.961 57.2942L260.506 62.9947L262.154 54.4725C263.648 46.2175 265.947 41.5538 272.958 37.9519L265.542 33.2513C264.511 42.9961 268.242 53.8902 273.402 61.4194L274.636 63.3849L276.934 63.7107C310.619 66.7751 339.846 90.7688 341.977 124.998C343.946 141.178 342.46 157.927 339.841 174.459C339.431 177.023 338.987 179.602 338.522 182.159L337.715 186.592L342.041 187.854C359.358 195.344 354.891 237.058 341.236 247.452L338.433 248.557L338.1 251.551C336.439 277.08 325.332 298.129 301.024 307.436C285.886 314.775 267.709 317.034 251.153 315.164L250.979 315.141C246.149 314.57 241.318 313.999 236.487 313.428C217.437 311.177 198.387 308.925 179.337 306.674L179.542 306.702C145.591 302.186 117.659 271.725 118.064 237.364C117.993 233.178 118.258 228.973 118.831 224.785L119.613 219.076L113.851 219.106C113.759 219.104 113.799 219.101 113.816 219.111C113.836 219.118 113.808 219.118 113.694 219.007C113.474 218.809 113.039 218.148 112.713 217.287C112.031 215.539 111.637 213.129 111.477 210.715C111.161 205.857 111.612 200.614 112.468 195.53C113.726 188.219 115.83 180.945 119.013 174.529C122.033 168.181 127.263 162.583 130.974 163.691L135.426 164.502L136.675 160.153C138.883 152.282 139.753 144.649 140.707 137.103C142.511 122.356 144.041 107.723 149.244 94.8375C154.549 80.9293 165.791 70.9083 180.31 68.0983C179.602 64.841 178.895 61.5836 178.187 58.3263C161.073 61.3378 145.771 75.0583 139.983 91.0643C134.048 105.877 132.609 121.235 130.781 135.888C129.852 143.34 128.95 150.723 127.064 157.392L132.765 153.853C119.653 152.284 113.815 163.171 110.072 170.05C106.28 177.728 104.028 185.694 102.608 193.858C101.66 199.547 101.119 205.366 101.5 211.389C101.723 214.424 102.117 217.549 103.394 220.915C104.054 222.582 104.973 224.431 106.672 226.127C108.358 227.881 111.254 229.187 113.904 229.106L108.924 223.428C108.284 228.097 107.985 232.812 108.065 237.532C107.455 276.443 139.91 311.712 177.959 316.576L178.164 316.605C197.214 318.856 216.264 321.108 235.313 323.359C240.144 323.93 244.975 324.501 249.806 325.072L249.632 325.048C268.831 327.188 287.915 324.762 305.396 316.43C316.891 310.832 329.635 303.688 337.092 291.259C344.469 279.019 346.496 265.515 348.038 252.657L344.902 256.756C361.257 246.213 361.202 230.99 362.934 217.267C363.143 204.171 363.05 185.26 344.841 178.254L348.36 183.95C348.837 181.33 349.293 178.68 349.715 176.037C352.404 158.99 354.039 141.46 351.901 123.768C350.341 86.0972 313.962 56.1952 278.338 53.8098L281.871 56.1011C277.148 48.8875 274.855 42.0264 275.52 33.91L276.124 24.7555L268.103 29.2094C264.179 31.3737 259.767 34.4628 256.96 39.0915C254.172 43.6705 253.198 48.306 252.335 52.5748L260.528 49.7531C255.868 45.6942 251.207 41.6354 246.546 37.5766C240.963 32.7145 235.381 27.8525 229.798 22.9904C229.22 22.4878 228.643 21.9852 228.066 21.4826L223.355 17.3798L220.384 22.8752C216.664 29.6045 213.28 37.8979 213.117 46.3763C212.952 50.6948 213.319 54.8271 213.823 58.8407L218.408 53.2257C216.197 53.4279 213.037 52.3063 209.986 50.6017C208.843 49.9718 207.689 49.2636 206.54 48.5149C199.819 44.5225 195.347 38.5538 184.352 35.173L180.388 34.4513L178.84 38.1723C178.696 38.5199 178.556 38.8679 178.421 39.2159C175.433 47.1328 174.287 54.95 174.25 63.3389ZM184.247 63.0856L174.25 63.3389L178.187 58.3263L180.31 68.0983L184.352 67.2202L184.247 63.0856Z" fill="black" mask="url(#path-2-inside-1_34_89)"/>
<path d="M184.598 310.163C184.951 336.146 249.214 343.27 253.601 319.166" stroke="black" stroke-width="6" stroke-linecap="round"/>
<path d="M184.149 309.837C192.736 315.71 209.237 314.404 252.397 320.198C248.473 341.753 183.58 335.301 184.149 309.837Z" fill="#8B562E"/>
<path d="M132.722 190.945C130.298 204.257 128.736 215.63 121.939 213.885C114.874 212.599 117.509 201.929 119.932 188.617C122.355 175.305 122.844 164.244 130.714 165.677C138.093 167.02 135.145 177.633 132.722 190.945Z" fill="#9F7474"/>
<path d="M350.424 213.518C350.041 227.044 347.831 238.901 340.848 238.203C333.67 238 333.941 226.146 334.324 212.621C334.707 199.095 331.825 187.973 339.822 188.2C347.319 188.412 350.806 199.993 350.424 213.518Z" fill="#A8866C"/>
<path d="M210.951 268.533C226.944 275.258 239.043 269.462 245.497 262.605C230.431 259.194 219.958 255.964 211.805 252.054C204.529 248.565 199.148 244.56 194.012 239.501C193.807 246.411 194.842 251.835 197.07 256.2C199.731 261.415 204.223 265.367 210.951 268.533Z" fill="#E3CDBC" stroke="black" stroke-width="4"/>
<path d="M190.963 235.115C208.563 253.077 230.192 259.32 257.547 262.99" stroke="black" stroke-width="4" stroke-linecap="round"/>
<path d="M188.822 272.933C191.825 279.976 197.755 282.05 205.853 282.918" stroke="#8B562E" stroke-width="4" stroke-linecap="round"/>
<path d="M172.79 98.6283C183.618 72.6474 308.122 75.4903 325.912 117.353C330.696 127.372 319.913 150.312 319.913 150.312C327.577 165.922 329.595 185.058 327.056 211.581C331.959 236.582 332.693 248.963 324.72 263.502C314.895 269.674 294.979 267.745 289.882 262.243C265.116 214.028 195.487 202.879 156.259 242.494C142.525 240.404 134.237 239.359 130.143 235.199C127.707 232.722 133.07 212.055 140.436 200.989C142.216 176.326 143.345 166.788 145.765 163.335C156.648 154.25 162.111 148.678 166.254 134.538C166.254 134.538 166.484 102.563 172.79 98.6283Z" fill="#A8866C"/>
<path d="M97.0391 319.116C99.7239 317.775 104.533 317.36 112.23 321.196C115.28 322.716 117.859 326.333 119.875 331.739C121.853 337.043 123.083 343.513 123.825 349.888C124.563 356.237 124.803 362.356 124.857 366.9C124.884 369.168 124.865 371.035 124.839 372.331C124.826 372.978 124.811 373.483 124.8 373.823C124.796 373.945 124.792 374.046 124.789 374.124C123.551 380.72 120.877 385.026 117.797 387.611C114.686 390.22 110.963 391.247 107.321 390.954C99.9868 390.363 92.9962 384.426 92.5382 374.979L92.5373 374.968L92.5375 374.967C92.5374 374.966 92.5371 374.965 92.537 374.964C92.5369 374.961 92.5369 374.956 92.5366 374.95C92.5359 374.937 92.5346 374.918 92.5333 374.892C92.5307 374.839 92.5266 374.76 92.5215 374.656C92.5114 374.448 92.4968 374.138 92.4788 373.735C92.4426 372.929 92.3932 371.751 92.3394 370.269C92.2316 367.306 92.1071 363.129 92.0413 358.285C91.9096 348.576 92.0143 336.26 92.9424 325.655L92.9508 325.565L92.9531 325.476L92.9798 325.036C93.1853 322.818 94.4885 320.39 97.0391 319.116Z" fill="url(#paint0_linear_34_89)" stroke="black" stroke-width="6"/>
<path d="M125.014 338.989C127.843 340.968 131.359 342.323 135.068 343.363C140.943 345.008 147.889 346.007 154.352 347.189C160.933 348.393 167.059 349.791 171.77 352.193C176.351 354.53 179.391 357.705 180.302 362.467C180.361 370.049 177.64 374.349 174.789 376.866C171.959 379.366 168.834 380.261 167.49 380.632C161.76 381.239 153.603 379.809 145.759 377.025C138.134 374.319 131.199 370.475 127.288 366.412L125.014 338.989Z" fill="#885F3D" stroke="black" stroke-width="4"/>
<path d="M78.2192 337.471C81.3448 337.372 84.4911 337.815 87.0476 338.774C89.5151 339.7 91.2053 341.015 92.0138 342.557C94.6686 359.164 97.1014 375.595 98.0255 389.5C98.4901 396.493 98.5696 402.795 98.1159 408.127C97.6596 413.49 96.6762 417.71 95.127 420.643C93.6313 423.475 90.7599 425.314 87.0323 425.954C83.2944 426.595 78.8195 425.993 74.497 424.021C65.9488 420.123 58.1423 410.935 58.2718 395.988L66.2877 343.096C66.5452 341.707 67.6897 340.361 69.9203 339.28C72.127 338.211 75.0868 337.571 78.2192 337.471Z" fill="url(#paint1_linear_34_89)" stroke="black" stroke-width="4"/>
<path d="M52.7468 330.853C57.5002 330.666 63.2825 332.159 68.8093 337.402L57.1467 390.615C53.6315 395.037 48.2251 396.676 42.6544 395.944C36.9189 395.191 31.2191 391.933 27.7345 386.897L27.6473 386.771L27.5425 386.66L27.4 386.488C27.063 386.027 26.7032 385.148 26.4843 383.672C26.2434 382.048 26.2114 379.968 26.385 377.537C26.7316 372.683 27.878 366.696 29.5331 360.701C31.1871 354.71 33.3259 348.794 35.6201 344.078C36.7678 341.719 37.9356 339.7 39.0755 338.134C40.2374 336.538 41.2695 335.555 42.102 335.091L42.4325 334.906L42.6735 334.612C43.2168 333.95 44.4102 333.046 46.2226 332.275C47.9975 331.521 50.2365 330.952 52.7468 330.853Z" fill="url(#paint2_linear_34_89)" stroke="black" stroke-width="4"/>
<path opacity="0.65" d="M266.881 380.148L266.129 368.526C272.791 367.611 283.739 375.106 285.115 384.817C286.454 394.262 283.285 404.786 272.274 405.539C269.816 396.399 268.228 391.734 266.881 380.148Z" fill="#22602D"/>
<path d="M270.516 383.843L269.646 373.416C272.844 373.066 278.723 381.2 278.97 387.506C279.21 393.639 279.321 402.083 274.067 402.173C273.283 396.196 270.67 391.355 270.516 383.843Z" fill="black"/>
<path d="M316.93 395.479C324.123 397.611 329.403 402.52 329.739 408.723C329.707 408.796 329.67 408.879 329.629 408.971C329.432 409.408 329.141 410.052 328.765 410.871C328.013 412.511 326.924 414.857 325.576 417.677C322.879 423.319 319.153 430.846 315.029 438.403C310.898 445.974 306.4 453.516 302.161 459.217C300.039 462.071 298.026 464.402 296.2 466.036C294.315 467.724 292.889 468.43 291.935 468.519L291.64 468.547L291.366 468.658C288.803 469.701 285.331 469.913 281.549 469.277C277.793 468.645 273.904 467.205 270.593 465.146C267.271 463.08 264.649 460.467 263.247 457.556C261.877 454.71 261.617 451.481 263.15 447.902C267.087 438.713 274.486 427.968 281.409 418.709C284.858 414.095 288.155 409.896 290.813 406.469C293.269 403.303 295.274 400.677 296.251 399.071C301.429 394.317 309.696 393.335 316.93 395.479Z" fill="url(#paint3_linear_34_89)" stroke="black" stroke-width="4"/>
<path d="M358.956 394.815C362.362 395.637 365.228 397.295 367.171 399.604C369.093 401.887 370.203 404.909 369.965 408.685C369.453 416.798 365.026 429.126 358.834 440.293C355.755 445.846 352.285 451.029 348.731 455.183C345.148 459.371 341.603 462.365 338.409 463.749L338.351 463.774L338.295 463.803C330.558 467.749 322.088 465.379 315.154 461.086C311.721 458.961 308.784 456.431 306.681 454.17C305.63 453.039 304.811 452.001 304.249 451.142C303.644 450.218 303.47 449.701 303.451 449.569L303.424 449.376L303.36 449.192C302.236 445.968 303.281 441.464 306.16 436.08C308.981 430.805 313.3 425.169 317.869 419.957C322.424 414.76 327.164 410.056 330.771 406.646C332.573 404.943 334.088 403.567 335.151 402.618C335.682 402.144 336.1 401.777 336.384 401.529C336.526 401.405 336.635 401.311 336.707 401.249C336.744 401.217 336.771 401.194 336.789 401.178L336.813 401.158L336.814 401.157L336.848 401.127L336.882 401.097C343.433 394.964 352.123 393.165 358.956 394.815Z" fill="url(#paint4_linear_34_89)" stroke="black" stroke-width="4"/>
<path d="M364.513 426.32C363.439 427.332 361.909 428.796 360.09 430.601C356.448 434.214 351.665 439.172 347.077 444.574C342.473 449.996 338.141 455.775 335.335 461.038C333.932 463.668 332.958 466.082 332.495 468.193C332.03 470.31 332.117 471.947 332.61 473.175L332.674 473.337L332.716 473.506C333.162 475.304 334.841 477.431 337.794 479.543C340.669 481.6 344.415 483.397 348.331 484.654C352.253 485.914 356.2 486.586 359.462 486.506C362.84 486.423 364.9 485.56 365.831 484.425L366.322 483.826L366.718 483.711C366.84 483.574 367.015 483.351 367.24 483.016C367.766 482.232 368.414 481.069 369.14 479.57C370.584 476.586 372.23 472.501 373.737 467.996C375.244 463.494 376.593 458.63 377.465 454.09C378.332 449.582 378.693 445.565 378.365 442.583C376.204 433.834 371.226 430.002 364.822 426.031C364.724 426.123 364.62 426.219 364.513 426.32Z" fill="url(#paint5_linear_34_89)" stroke="black" stroke-width="5"/>
<g filter="url(#filter0_d_34_89)">
<path d="M230.101 423.138C224.594 417.102 226.305 402.118 234.757 397.558C244.706 390.73 265.108 398.745 291.821 402.355L270.886 433.611C254.428 434.681 240.073 432.576 230.101 423.138Z" fill="#885F3D"/>
<path d="M229.17 410.105C229.911 405.389 232.229 401.195 235.707 399.319L235.801 399.268L235.889 399.207C237.953 397.79 240.678 397.061 244.196 396.918C247.718 396.774 251.875 397.221 256.677 398.015C261.477 398.809 266.787 399.924 272.646 401.084C277.561 402.056 282.826 403.049 288.39 403.883L269.776 431.674C253.94 432.583 240.695 430.364 231.54 421.745C229.381 419.339 228.429 414.826 229.17 410.105Z" stroke="black" stroke-width="4"/>
</g>
<rect x="196.128" y="352.919" width="36" height="35" rx="3.5" transform="rotate(10.3165 196.128 352.919)" stroke="black" stroke-width="5"/>
<path d="M206.829 362.998C206.565 364.447 207.526 365.835 208.975 366.099C210.424 366.363 211.812 365.402 212.076 363.953C212.34 362.504 211.379 361.116 209.93 360.852C208.481 360.588 207.093 361.549 206.829 362.998ZM222.153 366.296C222.424 366.345 222.685 366.165 222.734 365.893C222.784 365.622 222.604 365.361 222.332 365.312L222.242 365.804L222.153 366.296ZM209.453 363.476L209.363 363.968L222.153 366.296L222.242 365.804L222.332 365.312L209.542 362.984L209.453 363.476Z" fill="#0B3513"/>
<path d="M222.734 365.893C222.784 365.622 222.604 365.361 222.332 365.312C222.06 365.262 221.8 365.442 221.75 365.714L222.242 365.804L222.734 365.893ZM221.824 368.099C220.375 367.836 218.987 368.796 218.723 370.245C218.46 371.694 219.42 373.083 220.869 373.346C222.318 373.61 223.707 372.649 223.97 371.2C224.234 369.751 223.273 368.363 221.824 368.099ZM222.242 365.804L221.75 365.714L220.855 370.633L221.347 370.723L221.839 370.812L222.734 365.893L222.242 365.804Z" fill="#0B3513"/>
<path d="M202.863 366.173C201.414 365.909 200.026 366.87 199.762 368.319C199.498 369.768 200.459 371.156 201.908 371.42C203.357 371.683 204.745 370.723 205.009 369.274C205.273 367.825 204.312 366.436 202.863 366.173ZM202.385 368.796L201.893 368.707L199.565 381.496L200.057 381.586L200.549 381.676L202.877 368.886L202.385 368.796Z" fill="#FF0000"/>
<line x1="199.476" y1="381.988" x2="218.169" y2="385.391" stroke="#FF0000"/>
<path d="M218.855 381.62C220.304 381.883 221.692 380.922 221.956 379.474C222.22 378.025 221.259 376.636 219.81 376.372C218.361 376.109 216.973 377.069 216.709 378.518C216.445 379.967 217.406 381.356 218.855 381.62ZM218.079 385.883L218.571 385.972L219.825 379.086L219.333 378.996L218.841 378.906L217.587 385.793L218.079 385.883Z" fill="white"/>
<path d="M304.843 465.712L367.97 511.702L364.557 530.452L356.686 529.02L355.432 535.906L11.7921 473.354L11.6074 467.41L11.5771 466.448L10.6901 466.075L3.30291 462.962L6.42958 445.786L66.5273 422.331L304.843 465.712Z" fill="url(#paint6_linear_34_89)" stroke="black" stroke-width="3"/>
<path d="M125.583 447.311L142.308 450.356L142.396 455.454L123.704 452.051L125.583 447.311Z" fill="url(#paint7_linear_34_89)"/>
<path d="M109.572 451.512L126.297 454.556L126.385 459.654L107.692 456.252L109.572 451.512Z" fill="url(#paint8_linear_34_89)"/>
<path d="M90.124 433.742L101.567 435.825L101.345 440.866L88.5554 438.538L90.124 433.742Z" fill="url(#paint9_linear_34_89)"/>
<path d="M105.865 436.607L117.309 438.69L117.086 443.732L104.297 441.404L105.865 436.607Z" fill="url(#paint10_linear_34_89)"/>
<path d="M120.623 439.293L132.066 441.376L131.844 446.418L119.054 444.09L120.623 439.293Z" fill="url(#paint11_linear_34_89)"/>
<path d="M136.468 442.178L149.672 444.581L149.553 449.642L134.795 446.955L136.468 442.178Z" fill="url(#paint12_linear_34_89)"/>
<path d="M161.478 446.73L248.625 462.593L252.856 468.446L155.456 450.716L161.478 446.73Z" fill="url(#paint13_linear_34_89)"/>
<path d="M86.9434 447.393L103.669 450.437L103.757 455.535L85.0642 452.133L86.9434 447.393Z" fill="url(#paint14_linear_34_89)"/>
<path d="M73.6617 444.975L84.9757 447.035L76.4318 457.676L56.2632 454.005L73.6617 444.975Z" fill="url(#paint15_linear_34_89)"/>
<path d="M79.4743 439.935L118.206 446.985L119.589 452.319L76.3005 444.439L79.4743 439.935Z" fill="url(#paint16_linear_34_89)"/>
<path d="M91.4139 456.338L108.139 459.382L108.227 464.48L89.5346 461.078L91.4139 456.338Z" fill="url(#paint17_linear_34_89)"/>
<path d="M148.211 451.43L164.936 454.475L165.025 459.573L146.332 456.17L148.211 451.43Z" fill="url(#paint18_linear_34_89)"/>
<path d="M136.135 456.347L152.86 459.392L152.949 464.49L134.256 461.087L136.135 456.347Z" fill="url(#paint19_linear_34_89)"/>
<path d="M114.042 460.457L130.767 463.501L130.856 468.6L112.163 465.197L114.042 460.457Z" fill="url(#paint20_linear_34_89)"/>
<path d="M170.839 455.549L187.564 458.594L187.653 463.692L168.96 460.289L170.839 455.549Z" fill="url(#paint21_linear_34_89)"/>
<path d="M160.731 460.824L177.456 463.869L177.545 468.967L158.852 465.564L160.731 460.824Z" fill="url(#paint22_linear_34_89)"/>
<path d="M135.686 464.397L152.412 467.441L152.5 472.54L133.807 469.137L135.686 464.397Z" fill="url(#paint23_linear_34_89)"/>
<path d="M192.483 459.489L209.209 462.533L209.297 467.632L190.604 464.229L192.483 459.489Z" fill="url(#paint24_linear_34_89)"/>
<path d="M186.311 465.48L203.036 468.525L203.124 473.623L184.431 470.22L186.311 465.48Z" fill="url(#paint25_linear_34_89)"/>
<path d="M160.282 468.874L177.007 471.918L177.096 477.017L158.403 473.614L160.282 468.874Z" fill="url(#paint26_linear_34_89)"/>
<path d="M214.128 463.429L230.853 466.473L230.941 471.572L212.248 468.169L214.128 463.429Z" fill="url(#paint27_linear_34_89)"/>
<path d="M208.939 469.599L225.664 472.644L225.752 477.742L207.06 474.34L208.939 469.599Z" fill="url(#paint28_linear_34_89)"/>
<path d="M186.846 473.709L203.571 476.754L203.659 481.852L184.967 478.449L186.846 473.709Z" fill="url(#paint29_linear_34_89)"/>
<path d="M234.788 467.19L251.514 470.234L251.602 475.333L232.909 471.93L234.788 467.19Z" fill="url(#paint30_linear_34_89)"/>
<path d="M231.567 473.718L248.292 476.763L248.381 481.861L229.688 478.458L231.567 473.718Z" fill="url(#paint31_linear_34_89)"/>
<path d="M211.621 477.203L228.346 480.247L228.434 485.345L209.741 481.943L211.621 477.203Z" fill="url(#paint32_linear_34_89)"/>
<path d="M257.417 471.309L274.142 474.353L274.23 479.451L255.537 476.049L257.417 471.309Z" fill="url(#paint33_linear_34_89)"/>
<path d="M255.179 478.016L271.904 481.061L271.993 486.159L253.3 482.757L255.179 478.016Z" fill="url(#paint34_linear_34_89)"/>
<path d="M280.849 476.591L302.336 480.502L307.501 486.524L279.954 481.51L280.849 476.591Z" fill="url(#paint35_linear_34_89)"/>
<path d="M282.726 483.031L308.05 487.64L314.298 493.86L281.831 487.95L282.726 483.031Z" fill="url(#paint36_linear_34_89)"/>
<path d="M287.555 490.008L314.413 494.897L321.094 501.195L286.659 494.927L287.555 490.008Z" fill="url(#paint37_linear_34_89)"/>
<path d="M237.2 481.859L253.925 484.903L254.014 490.001L235.321 486.599L237.2 481.859Z" fill="url(#paint38_linear_34_89)"/>
<path d="M263.585 487.678L280.31 490.722L280.398 495.821L261.706 492.418L263.585 487.678Z" fill="url(#paint39_linear_34_89)"/>
<path d="M132.976 155.416L158.556 160.073L156.676 170.403L131.365 164.271L132.976 155.416Z" fill="black"/>
<path d="M327.778 179.695L344.146 179.117L342.713 186.988C334.404 189.973 329.686 191.714 325.987 189.533L327.778 179.695Z" fill="black"/>
<path d="M232.254 173.996L248.979 177.04L247.726 183.927L231.001 180.883L232.254 173.996Z" fill="black"/>
<path d="M229.039 158.425C230.967 158.713 232.289 160.521 231.977 162.446L226.4 196.906C226.091 198.814 224.294 200.11 222.385 199.801L161.582 189.945C159.689 189.638 158.395 187.864 158.682 185.967L163.783 152.226C164.072 150.318 165.851 149.004 167.76 149.289L229.039 158.425Z" stroke="black" stroke-width="9"/>
<path d="M261.147 160.451L320.177 171.196C322.622 171.642 324.243 173.984 323.798 176.43L318.379 206.199C317.947 208.576 315.714 210.187 313.322 209.849L253.866 201.443C251.336 201.085 249.612 198.695 250.069 196.182L255.914 164.073C256.359 161.628 258.702 160.006 261.147 160.451Z" stroke="black" stroke-width="9"/>
<ellipse cx="214.275" cy="177.838" rx="9" ry="11" transform="rotate(10.3165 214.275 177.838)" fill="black"/>
<ellipse cx="264.988" cy="184.02" rx="9" ry="11" transform="rotate(10.3165 264.988 184.02)" fill="black"/>
<path d="M230.873 365.85L237.76 367.104" stroke="black" stroke-width="3" stroke-linecap="round"/>
<path d="M188.703 357.412L195.59 358.665" stroke="black" stroke-width="3" stroke-linecap="round"/>
<path d="M194.173 395.761L195.427 388.874" stroke="#0B3513" stroke-width="3" stroke-linecap="round"/>
<path d="M203.35 353.725L204.604 346.838" stroke="#0B3513" stroke-width="3" stroke-linecap="round"/>
<line x1="230.425" y1="371.105" x2="236.328" y2="372.179" stroke="black" stroke-width="3" stroke-linecap="round"/>
<line x1="188.21" y1="362.912" x2="194.113" y2="363.987" stroke="black" stroke-width="3" stroke-linecap="round"/>
<line x1="199.674" y1="396.254" x2="200.749" y2="390.351" stroke="#0B3513" stroke-width="3" stroke-linecap="round"/>
<line x1="209.835" y1="354.397" x2="210.909" y2="348.494" stroke="#0B3513" stroke-width="3" stroke-linecap="round"/>
<line x1="229.351" y1="377.008" x2="235.254" y2="378.082" stroke="black" stroke-width="3" stroke-linecap="round"/>
<line x1="187.135" y1="368.815" x2="193.038" y2="369.89" stroke="black" stroke-width="3" stroke-linecap="round"/>
<line x1="205.577" y1="397.329" x2="206.652" y2="391.426" stroke="#0B3513" stroke-width="3" stroke-linecap="round"/>
<line x1="215.737" y1="355.472" x2="216.812" y2="349.569" stroke="#0B3513" stroke-width="3" stroke-linecap="round"/>
<line x1="228.276" y1="382.911" x2="234.179" y2="383.985" stroke="black" stroke-width="3" stroke-linecap="round"/>
<line x1="186.061" y1="374.718" x2="191.964" y2="375.793" stroke="black" stroke-width="3" stroke-linecap="round"/>
<line x1="211.48" y1="398.403" x2="212.555" y2="392.5" stroke="#0B3513" stroke-width="3" stroke-linecap="round"/>
<line x1="221.64" y1="356.546" x2="222.715" y2="350.643" stroke="#0B3513" stroke-width="3" stroke-linecap="round"/>
<line x1="227.202" y1="388.814" x2="233.105" y2="389.888" stroke="black" stroke-width="3" stroke-linecap="round"/>
<line x1="184.986" y1="380.621" x2="190.889" y2="381.696" stroke="black" stroke-width="3" stroke-linecap="round"/>
<line x1="217.383" y1="399.478" x2="218.458" y2="393.575" stroke="#0B3513" stroke-width="3" stroke-linecap="round"/>
<line x1="227.543" y1="357.621" x2="228.618" y2="351.718" stroke="#0B3513" stroke-width="3" stroke-linecap="round"/>
<defs>
<filter id="filter0_d_34_89" x="222.922" y="394.891" width="72.8987" height="46.9736" filterUnits="userSpaceOnUse" color-interpolation-filters="sRGB">
<feFlood flood-opacity="0" result="BackgroundImageFix"/>
<feColorMatrix in="SourceAlpha" type="matrix" values="0 0 0 0 0 0 0 0 0 0 0 0 0 0 0 0 0 0 127 0" result="hardAlpha"/>
<feOffset dy="4"/>
<feGaussianBlur stdDeviation="2"/>
<feComposite in2="hardAlpha" operator="out"/>
<feColorMatrix type="matrix" values="0 0 0 0 0 0 0 0 0 0 0 0 0 0 0 0 0 0 0.25 0"/>
<feBlend mode="normal" in2="BackgroundImageFix" result="effect1_dropShadow_34_89"/>
<feBlend mode="normal" in="SourceGraphic" in2="effect1_dropShadow_34_89" result="shape"/>
</filter>
<linearGradient id="paint0_linear_34_89" x1="64.9773" y1="266.535" x2="143.385" y2="433.272" gradientUnits="userSpaceOnUse">
<stop stop-color="#CB691C"/>
<stop offset="0.509111" stop-color="#65340E"/>
</linearGradient>
<linearGradient id="paint1_linear_34_89" x1="88.3254" y1="249.948" x2="71.2395" y2="480.617" gradientUnits="userSpaceOnUse">
<stop stop-color="#CB691C"/>
<stop offset="0.537736" stop-color="#65340E"/>
</linearGradient>
<linearGradient id="paint2_linear_34_89" x1="54.9193" y1="246.408" x2="38.9567" y2="451.363" gradientUnits="userSpaceOnUse">
<stop offset="0.259045" stop-color="#CB691C"/>
<stop offset="0.571144" stop-color="#65340E"/>
</linearGradient>
<linearGradient id="paint3_linear_34_89" x1="365.759" y1="339.582" x2="239.213" y2="479.176" gradientUnits="userSpaceOnUse">
<stop stop-color="#CB691C"/>
<stop offset="0.675827" stop-color="#65340E"/>
</linearGradient>
<linearGradient id="paint4_linear_34_89" x1="387.757" y1="363.914" x2="283.528" y2="500.964" gradientUnits="userSpaceOnUse">
<stop offset="0.14804" stop-color="#CB691C"/>
<stop offset="0.561895" stop-color="#65340E"/>
</linearGradient>
<linearGradient id="paint5_linear_34_89" x1="370.758" y1="384.706" x2="346.534" y2="531.745" gradientUnits="userSpaceOnUse">
<stop stop-color="#CB691C"/>
<stop offset="0.516227" stop-color="#65340E"/>
</linearGradient>
<linearGradient id="paint6_linear_34_89" x1="172.541" y1="440.613" x2="161.259" y2="502.594" gradientUnits="userSpaceOnUse">
<stop stop-color="#D9D9D9"/>
<stop offset="0.587712" stop-color="#8D8C8C"/>
<stop offset="0.826201" stop-color="#A1A1A1"/>
<stop offset="1" stop-color="#737373"/>
</linearGradient>
<linearGradient id="paint7_linear_34_89" x1="133.296" y1="448.715" x2="132.759" y2="451.667" gradientUnits="userSpaceOnUse">
<stop stop-color="#D9D9D9"/>
<stop offset="1" stop-color="#737373"/>
</linearGradient>
<linearGradient id="paint8_linear_34_89" x1="117.285" y1="452.916" x2="116.747" y2="455.867" gradientUnits="userSpaceOnUse">
<stop stop-color="#D9D9D9"/>
<stop offset="1" stop-color="#737373"/>
</linearGradient>
<linearGradient id="paint9_linear_34_89" x1="95.4013" y1="434.702" x2="94.864" y2="437.654" gradientUnits="userSpaceOnUse">
<stop stop-color="#D9D9D9"/>
<stop offset="1" stop-color="#737373"/>
</linearGradient>
<linearGradient id="paint10_linear_34_89" x1="111.142" y1="437.568" x2="110.605" y2="440.519" gradientUnits="userSpaceOnUse">
<stop stop-color="#D9D9D9"/>
<stop offset="1" stop-color="#737373"/>
</linearGradient>
<linearGradient id="paint11_linear_34_89" x1="125.9" y1="440.254" x2="125.363" y2="443.205" gradientUnits="userSpaceOnUse">
<stop stop-color="#D9D9D9"/>
<stop offset="1" stop-color="#737373"/>
</linearGradient>
<linearGradient id="paint12_linear_34_89" x1="142.557" y1="443.286" x2="142.019" y2="446.237" gradientUnits="userSpaceOnUse">
<stop stop-color="#D9D9D9"/>
<stop offset="1" stop-color="#737373"/>
</linearGradient>
<linearGradient id="paint13_linear_34_89" x1="201.667" y1="454.046" x2="201.129" y2="456.997" gradientUnits="userSpaceOnUse">
<stop stop-color="#D9D9D9"/>
<stop offset="1" stop-color="#737373"/>
</linearGradient>
<linearGradient id="paint14_linear_34_89" x1="94.6564" y1="448.797" x2="94.1192" y2="451.748" gradientUnits="userSpaceOnUse">
<stop stop-color="#D9D9D9"/>
<stop offset="1" stop-color="#737373"/>
</linearGradient>
<linearGradient id="paint15_linear_34_89" x1="69.3502" y1="444.19" x2="68.0608" y2="451.274" gradientUnits="userSpaceOnUse">
<stop stop-color="#D9D9D9"/>
<stop offset="1" stop-color="#737373"/>
</linearGradient>
<linearGradient id="paint16_linear_34_89" x1="97.336" y1="443.186" x2="96.7987" y2="446.137" gradientUnits="userSpaceOnUse">
<stop stop-color="#D9D9D9"/>
<stop offset="1" stop-color="#737373"/>
</linearGradient>
<linearGradient id="paint17_linear_34_89" x1="99.1269" y1="457.742" x2="98.5896" y2="460.693" gradientUnits="userSpaceOnUse">
<stop stop-color="#D9D9D9"/>
<stop offset="1" stop-color="#737373"/>
</linearGradient>
<linearGradient id="paint18_linear_34_89" x1="155.924" y1="452.834" x2="155.387" y2="455.786" gradientUnits="userSpaceOnUse">
<stop stop-color="#D9D9D9"/>
<stop offset="1" stop-color="#737373"/>
</linearGradient>
<linearGradient id="paint19_linear_34_89" x1="143.848" y1="457.751" x2="143.311" y2="460.703" gradientUnits="userSpaceOnUse">
<stop stop-color="#D9D9D9"/>
<stop offset="1" stop-color="#737373"/>
</linearGradient>
<linearGradient id="paint20_linear_34_89" x1="121.755" y1="461.861" x2="121.218" y2="464.812" gradientUnits="userSpaceOnUse">
<stop stop-color="#D9D9D9"/>
<stop offset="1" stop-color="#737373"/>
</linearGradient>
<linearGradient id="paint21_linear_34_89" x1="178.552" y1="456.953" x2="178.015" y2="459.905" gradientUnits="userSpaceOnUse">
<stop stop-color="#D9D9D9"/>
<stop offset="1" stop-color="#737373"/>
</linearGradient>
<linearGradient id="paint22_linear_34_89" x1="168.444" y1="462.228" x2="167.907" y2="465.18" gradientUnits="userSpaceOnUse">
<stop stop-color="#D9D9D9"/>
<stop offset="1" stop-color="#737373"/>
</linearGradient>
<linearGradient id="paint23_linear_34_89" x1="143.399" y1="465.801" x2="142.862" y2="468.752" gradientUnits="userSpaceOnUse">
<stop stop-color="#D9D9D9"/>
<stop offset="1" stop-color="#737373"/>
</linearGradient>
<linearGradient id="paint24_linear_34_89" x1="200.196" y1="460.893" x2="199.659" y2="463.844" gradientUnits="userSpaceOnUse">
<stop stop-color="#D9D9D9"/>
<stop offset="1" stop-color="#737373"/>
</linearGradient>
<linearGradient id="paint25_linear_34_89" x1="194.024" y1="466.884" x2="193.486" y2="469.836" gradientUnits="userSpaceOnUse">
<stop stop-color="#D9D9D9"/>
<stop offset="1" stop-color="#737373"/>
</linearGradient>
<linearGradient id="paint26_linear_34_89" x1="167.995" y1="470.278" x2="167.458" y2="473.229" gradientUnits="userSpaceOnUse">
<stop stop-color="#D9D9D9"/>
<stop offset="1" stop-color="#737373"/>
</linearGradient>
<linearGradient id="paint27_linear_34_89" x1="221.841" y1="464.833" x2="221.304" y2="467.784" gradientUnits="userSpaceOnUse">
<stop stop-color="#D9D9D9"/>
<stop offset="1" stop-color="#737373"/>
</linearGradient>
<linearGradient id="paint28_linear_34_89" x1="216.652" y1="471.003" x2="216.115" y2="473.955" gradientUnits="userSpaceOnUse">
<stop stop-color="#D9D9D9"/>
<stop offset="1" stop-color="#737373"/>
</linearGradient>
<linearGradient id="paint29_linear_34_89" x1="194.559" y1="475.113" x2="194.022" y2="478.065" gradientUnits="userSpaceOnUse">
<stop stop-color="#D9D9D9"/>
<stop offset="1" stop-color="#737373"/>
</linearGradient>
<linearGradient id="paint30_linear_34_89" x1="242.501" y1="468.594" x2="241.964" y2="471.545" gradientUnits="userSpaceOnUse">
<stop stop-color="#D9D9D9"/>
<stop offset="1" stop-color="#737373"/>
</linearGradient>
<linearGradient id="paint31_linear_34_89" x1="239.28" y1="475.122" x2="238.743" y2="478.074" gradientUnits="userSpaceOnUse">
<stop stop-color="#D9D9D9"/>
<stop offset="1" stop-color="#737373"/>
</linearGradient>
<linearGradient id="paint32_linear_34_89" x1="219.334" y1="478.607" x2="218.796" y2="481.558" gradientUnits="userSpaceOnUse">
<stop stop-color="#D9D9D9"/>
<stop offset="1" stop-color="#737373"/>
</linearGradient>
<linearGradient id="paint33_linear_34_89" x1="265.13" y1="472.713" x2="264.592" y2="475.664" gradientUnits="userSpaceOnUse">
<stop stop-color="#D9D9D9"/>
<stop offset="1" stop-color="#737373"/>
</linearGradient>
<linearGradient id="paint34_linear_34_89" x1="262.892" y1="479.42" x2="262.355" y2="482.372" gradientUnits="userSpaceOnUse">
<stop stop-color="#D9D9D9"/>
<stop offset="1" stop-color="#737373"/>
</linearGradient>
<linearGradient id="paint35_linear_34_89" x1="293.666" y1="478.924" x2="293.129" y2="481.875" gradientUnits="userSpaceOnUse">
<stop stop-color="#D9D9D9"/>
<stop offset="1" stop-color="#737373"/>
</linearGradient>
<linearGradient id="paint36_linear_34_89" x1="297.831" y1="485.78" x2="297.294" y2="488.732" gradientUnits="userSpaceOnUse">
<stop stop-color="#D9D9D9"/>
<stop offset="1" stop-color="#737373"/>
</linearGradient>
<linearGradient id="paint37_linear_34_89" x1="303.575" y1="492.924" x2="303.038" y2="495.876" gradientUnits="userSpaceOnUse">
<stop stop-color="#D9D9D9"/>
<stop offset="1" stop-color="#737373"/>
</linearGradient>
<linearGradient id="paint38_linear_34_89" x1="244.913" y1="483.263" x2="244.376" y2="486.214" gradientUnits="userSpaceOnUse">
<stop stop-color="#D9D9D9"/>
<stop offset="1" stop-color="#737373"/>
</linearGradient>
<linearGradient id="paint39_linear_34_89" x1="271.298" y1="489.082" x2="270.761" y2="492.033" gradientUnits="userSpaceOnUse">
<stop stop-color="#D9D9D9"/>
<stop offset="1" stop-color="#737373"/>
</linearGradient>
</defs>
</svg>
