<svg width="79" height="176" viewBox="0 0 79 176" fill="none" xmlns="http://www.w3.org/2000/svg">
<path d="M54.8438 0.945312C53.976 1.65731 52.8087 2.63628 51.4336 3.84375C48.3823 6.52304 44.3034 10.3296 40.1934 14.834C36.0847 19.3368 31.9358 24.5471 28.7539 30.0371C25.5743 35.5233 23.3418 41.3205 23.1045 46.9883L23.1016 47.0488L23.1133 47.1094C26.9179 65.8149 41.2678 75.996 54.1895 86.0146C67.1642 96.0745 78.6938 105.955 77.6357 124.075C76.9954 135.042 70.9401 147.802 64.9961 157.869C62.0303 162.892 59.1035 167.225 56.9189 170.302C56.1264 171.418 55.4286 172.366 54.8652 173.124C55.0153 172.562 55.1855 171.916 55.3701 171.194C56.0798 168.421 57.0096 164.544 57.8916 160.126C59.6528 151.304 61.2336 140.276 60.4561 131.581L60.4541 131.571L60.3682 130.896C59.362 123.949 54.8571 117.894 48.8242 112.179C42.5987 106.281 34.6463 100.657 27.0479 94.7559C11.7702 82.8899 -2.06828 69.898 0.90625 50.8477L0.912109 50.8086V50.7705C0.912109 30.9897 14.8121 18.4281 28.8574 10.7812C35.8707 6.96291 42.8886 4.38883 48.1562 2.76953C50.7892 1.96016 52.9829 1.39007 54.5166 1.02246C54.6292 0.995474 54.7384 0.970128 54.8438 0.945312Z" fill="url(#paint0_linear_33_54)" stroke="black"/>
<defs>
<linearGradient id="paint0_linear_33_54" x1="39.1015" y1="0" x2="39.1015" y2="175.501" gradientUnits="userSpaceOnUse">
<stop offset="0.105418" stop-color="white"/>
<stop offset="0.346154" stop-color="#327F40"/>
<stop offset="0.629808" stop-color="#FF0000"/>
<stop offset="0.86585"/>
</linearGradient>
</defs>
</svg>
