<svg width="6600" height="4693" viewBox="0 0 6600 4693" fill="none" xmlns="http://www.w3.org/2000/svg">
<g clip-path="url(#clip0_9_30)">
<rect width="6600" height="4693" fill="#C5B79B"/>
<g filter="url(#filter0_n_9_30)">
<path d="M0.5 2536C94.3858 2931.54 520.638 3079.21 874.09 2973.56C824.092 3396.15 1108.1 3456.1 1153.03 3455.86C1436.69 3454.37 1893.31 3146.79 2193.51 2686.73C2133.77 2899.05 2245.23 2885.78 2231.67 3037.87C2161.38 3233.85 2246.64 3388.59 2525.38 3306.83C2525.38 3306.83 2310.49 3724.83 2487.22 3841.7C2659.5 3869 2931.5 3358.5 2931.5 3358.5C2931.5 3358.5 2922.51 3635.51 3084.68 3635.51C3268.43 3612.55 3245 3306.83 3245 3306.83C3324.33 3339.5 3497.87 3326.74 3556.11 3306.83C3556.11 3306.83 3432.1 3590.6 3594.77 3661.54C3809.15 3741.67 4113 3347 4113 3347C4122.04 3616.48 4428.7 3710.03 4808.26 3287.44C5066.48 3463.52 5030.71 3502.31 5484.06 3249.16C5689 3565 5715 3480 5715 3480C5715 3449.38 6086.7 3023.59 6600 3216V4693H0L0.5 2536Z" fill="url(#paint0_linear_9_30)"/>
</g>
<path d="M17.2158 2330.72C442.716 990.216 2202.72 845.716 2487.22 1717.22C2760.22 2930.72 1450.22 3666.22 1056.72 3477.72C700.216 3316.72 1202.72 2695.72 1624.22 2846.72C1624.22 2915.22 1603.22 2915.22 1501.22 2915.22C1325.72 2896.22 844.716 3328.22 1199.22 3408.72C1624.22 3493.22 2621.72 1993.22 1993.22 1488.22C658.216 695.216 -620.285 2852.72 493.216 2893.72C730.716 2893.72 1023.72 2657.22 1110.22 2717.22C1164.72 2731.22 1217.22 2875.2 1056.72 2930.72C445.216 3142.22 -105.284 3043.22 17.2158 2330.72Z" fill="black"/>
<path fill-rule="evenodd" clip-rule="evenodd" d="M1215.71 1845.72C1280.79 1795.99 1305.99 1801.68 1334.71 1860.22C1320.87 1945.09 1276.11 2109.97 1262.71 2192.72C1259.17 2214.63 1215.71 2239.22 1190.21 2210.72C987.214 3002.72 1072.71 2755.22 918.214 3348.22C1027.21 3539.72 923.214 4572.71 812.214 4629.72C753.714 4669.22 691.713 4595.72 698.214 4547.22C613.213 4230.21 884.713 2583.22 1215.71 1845.72ZM900.714 3475.72C857.214 3440.22 794.212 3813.22 779.714 3979.22C755.216 4259.72 741.214 4553.22 779.714 4533.72C853.214 4547.21 966.213 3458.22 900.714 3475.72Z" fill="black"/>
<path fill-rule="evenodd" clip-rule="evenodd" d="M4750.71 3258.21C4641.72 3098.21 4782.22 2831.71 5032.21 2851.71C5190.21 2888.21 5154.71 3055.71 5128.71 3080.71H5058.71C5058.72 3036.71 5090.21 2964.71 5017.71 2936.21C4814.21 2957.21 4698.72 3173.71 5058.71 3430.21C5059.25 3429.85 5293.85 3271.14 5415.71 3208.71C5353.21 3161.21 5436.71 2851.71 5687.21 2905.21C5774.21 2936.21 5790.21 3011.71 5760.71 3094.71C5743.72 3116.71 5718.71 3113.71 5699.71 3094.71C5699.72 3086.71 5725.71 3024.32 5692.71 3005.71C5598.72 2952.71 5488.67 3045.21 5495.71 3136.21C5520.21 3271.21 5543.72 3271.21 5679.21 3436.21C6064.71 3136.21 6297.2 3126.91 6658.22 3173.71V3271.21C6291.72 3113.71 5911.72 3279.43 5718.71 3479.21C5857.71 3582.72 5772.21 4200.71 5382.21 4076.71C5090.32 3929.27 5604.33 3497.53 5604.71 3497.21C5525.99 3399.67 5466.63 3334.2 5436.71 3271.21C5436.57 3271.29 5213.98 3393.46 5090.21 3497.21C5382.21 3709.21 4989.71 4273.21 4735.71 4112.71C4427.79 3900.76 4989.45 3513.9 4989.71 3513.71L4782.21 3325.71C4694.71 3538.71 4074.58 3814.77 4129.22 3353.21C4128.9 3353.61 3804.11 3759.4 3579.22 3681.71C3414.34 3624.76 3519.56 3326.16 3519.72 3325.71C3413.87 3353.01 3357.44 3351.39 3260.72 3325.71C3260.74 3326.17 3274.06 3622.75 3067.22 3647.21C2919.33 3664.7 2919.22 3411.59 2919.22 3411.21C2919 3411.65 2667.31 3924.49 2464.22 3860.71C2265.94 3798.45 2494.94 3326.29 2495.22 3325.71C2122.72 3479.71 1955.71 2885.72 2367.72 2873.71C2549.72 2905.33 2464.22 3169.21 2367.72 3266.21C2368.13 3266.01 2588.23 3156.86 2605.22 3313.71C2615.77 3411.21 2391.96 3769.21 2525.72 3786.21C2658.18 3786.21 2811.94 3473.37 2967.72 3271.21C2985.72 3189.71 3048.22 3124.71 3082.72 3106.21C3098.45 3087.24 3113.22 3049.94 3161.22 3055.71C3248.71 3066.24 3288.71 3208.21 3260.72 3266.21H3552.22C3613.28 3144.33 3787.11 2917.99 3945.72 3028.71C4021.69 3081.75 3945.88 3265.82 3945.72 3266.21C3945.65 3266.23 3901.52 3280.37 3875.72 3271.21C3814.99 3249.66 3910.72 3173.71 3875.72 3106.21C3782.72 3007.21 3465.72 3526.21 3631.72 3611.71C3835.12 3646.7 4140.93 3271.56 4141.22 3271.21C4157.22 3127.21 4440.71 2951.21 4501.21 3106.21C4552.67 3289.05 4229.3 3365.58 4228.71 3365.71C4216.22 3668.21 4735.71 3463.71 4750.71 3258.21ZM5013.22 3548.71C4904.21 3594.71 4599.72 4040.21 4796.22 4054.71C5013.22 4054.71 5173.71 3739.71 5013.22 3548.71ZM5636.79 3528.71C5527.79 3574.71 5221.21 3963.21 5407.21 4013.21C5611.21 4048.71 5793.71 3702.21 5636.79 3528.71ZM3112.72 3208.21C3056.72 3201.21 2957.21 3621.21 3080.21 3568.21C3184.21 3535.71 3222.71 3311.22 3212.72 3289.71C3149.22 3253.71 3141.22 3244.21 3112.72 3208.21ZM4434.71 3130.71C4414 3127.05 4380.88 3130.7 4380.71 3130.71C4380.71 3130.71 4252.67 3224.21 4249.71 3282.71C4311.72 3295.71 4446.71 3161.21 4434.71 3130.71ZM2389.22 2994.21C2267.72 2975.71 2244.22 3228.71 2296.22 3237.71C2322.72 3275.21 2451.71 3014.71 2389.22 2994.21ZM3219.22 3233.71C3225.21 3230.07 3224.21 3099.62 3168.22 3129.71C3128.22 3151.21 3188.72 3237.71 3219.22 3233.71Z" fill="black"/>
</g>
<defs>
<filter id="filter0_n_9_30" x="0" y="2536" width="6600" height="2157" filterUnits="userSpaceOnUse" color-interpolation-filters="sRGB">
<feFlood flood-opacity="0" result="BackgroundImageFix"/>
<feBlend mode="normal" in="SourceGraphic" in2="BackgroundImageFix" result="shape"/>
<feTurbulence type="fractalNoise" baseFrequency="0.043859649449586868 0.043859649449586868" stitchTiles="stitch" numOctaves="3" result="noise" seed="1387" />
<feColorMatrix in="noise" type="luminanceToAlpha" result="alphaNoise" />
<feComponentTransfer in="alphaNoise" result="coloredNoise1">
<feFuncA type="discrete" tableValues="0 0 0 0 0 0 0 0 0 0 0 0 0 0 0 0 0 1 1 1 1 1 1 1 1 1 1 1 1 1 1 1 0 0 0 0 0 0 0 0 0 0 0 0 0 0 0 0 0 0 0 0 0 0 0 0 0 0 0 0 0 0 0 0 0 0 0 0 0 0 0 0 0 0 0 0 0 0 0 0 0 0 0 0 0 0 0 0 0 0 0 0 0 0 0 0 0 0 0 0 "/>
</feComponentTransfer>
<feComposite operator="in" in2="shape" in="coloredNoise1" result="noise1Clipped" />
<feComponentTransfer in="alphaNoise" result="coloredNoise2">
<feFuncA type="discrete" tableValues="0 0 0 0 0 0 0 0 0 0 0 0 0 0 0 0 0 0 0 0 0 0 0 0 0 0 0 0 0 0 0 0 0 0 0 0 0 0 0 0 0 0 0 0 0 0 0 0 0 0 0 0 0 0 0 0 0 0 0 0 0 0 0 0 0 0 0 0 1 1 1 1 1 1 1 1 1 1 1 1 1 1 1 0 0 0 0 0 0 0 0 0 0 0 0 0 0 0 0 0 "/>
</feComponentTransfer>
<feComposite operator="in" in2="shape" in="coloredNoise2" result="noise2Clipped" />
<feFlood flood-color="#594112" result="color1Flood" />
<feComposite operator="in" in2="noise1Clipped" in="color1Flood" result="color1" />
<feFlood flood-color="#133C00" result="color2Flood" />
<feComposite operator="in" in2="noise2Clipped" in="color2Flood" result="color2" />
<feMerge result="effect1_noise_9_30">
<feMergeNode in="shape" />
<feMergeNode in="color1" />
<feMergeNode in="color2" />
</feMerge>
</filter>
<linearGradient id="paint0_linear_9_30" x1="8978" y1="3083.99" x2="-3259.49" y2="2995.49" gradientUnits="userSpaceOnUse">
<stop offset="0.1294" stop-color="#261912"/>
<stop offset="0.44836" stop-color="#DEB464"/>
<stop offset="0.805405" stop-color="#261912"/>
</linearGradient>
<clipPath id="clip0_9_30">
<rect width="6600" height="4693" fill="white"/>
</clipPath>
</defs>
</svg>
