<svg width="6735" height="4066" viewBox="-34 -274 6735 4066" fill="none" xmlns="http://www.w3.org/2000/svg">
<g clip-path="url(#clip0_13_158)">
<rect x="-633" y="-274" width="7334" height="4066" fill="#001A09"/>
<path d="M8.71582 1644.72C102.602 2040.25 528.853 2097.92 882.306 1992.28C832.308 2414.86 1116.32 2474.81 1161.24 2474.58C1444.91 2473.09 1901.53 2165.51 2201.73 1705.45C2141.98 1917.76 2253.44 1904.49 2239.89 2056.58C2169.6 2252.57 2254.85 2407.31 2533.59 2325.55C2533.59 2325.55 2318.71 2743.54 2495.44 2860.42C2667.64 2953.82 2960.35 2414.86 2960.35 2414.86C2960.35 2414.86 2930.72 2654.23 3092.89 2654.23C3276.65 2631.26 3287.19 2325.55 3287.19 2325.55C3366.52 2358.21 3506.09 2345.45 3564.33 2325.55C3564.33 2325.55 3440.32 2609.32 3602.99 2680.26C3817.37 2760.39 4161.28 2373.52 4161.28 2373.52C4170.32 2643 4436.91 2728.74 4816.47 2306.16C5074.69 2482.23 5038.93 2521.02 5492.28 2267.88C5697.22 2583.72 5723.22 2498.72 5723.22 2498.72C5723.22 2468.09 6186.92 2047.4 6700.22 2239.81V3711.72H8.71582V1644.72Z" fill="url(#paint0_linear_13_158)"/>
<path d="M17.2158 1361.72C442.716 21.2158 2202.72 -123.284 2487.22 748.216C2760.22 1961.72 1450.22 2697.22 1056.72 2508.72C700.216 2347.72 1202.72 1726.72 1624.22 1877.72C1624.22 1946.22 1603.22 1946.22 1501.22 1946.22C1325.72 1927.22 844.716 2359.22 1199.22 2439.72C1624.22 2524.22 2621.72 1024.22 1993.22 519.216C658.216 -273.784 -620.285 1883.72 493.216 1924.72C730.716 1924.72 1023.72 1688.22 1110.22 1748.22C1164.72 1762.22 1217.22 1906.2 1056.72 1961.72C445.216 2173.22 -105.284 2074.22 17.2158 1361.72Z" fill="#FFF0D3"/>
<path fill-rule="evenodd" clip-rule="evenodd" d="M1215.72 876.715C1280.79 826.994 1306 832.676 1334.72 891.215C1320.87 976.086 1276.11 1140.97 1262.72 1223.72C1259.17 1245.63 1215.72 1270.22 1190.22 1241.72C987.216 2033.72 1072.72 1786.22 918.216 2379.22C1027.22 2570.72 923.215 3603.71 812.216 3660.72C753.716 3700.22 691.715 3626.72 698.216 3578.22C613.215 3261.21 884.715 1614.21 1215.72 876.715ZM900.716 2506.72C857.216 2471.22 794.214 2844.22 779.716 3010.22C755.218 3290.72 741.216 3584.22 779.716 3564.72C853.216 3578.21 966.215 2489.22 900.716 2506.72Z" fill="#FFF0D3"/>
<path fill-rule="evenodd" clip-rule="evenodd" d="M4750.72 2289.21C4641.72 2129.21 4782.22 1862.71 5032.22 1882.71C5190.21 1919.21 5154.72 2086.71 5128.72 2111.71H5058.72C5058.72 2067.71 5090.22 1995.71 5017.72 1967.21C4814.22 1988.21 4698.72 2204.71 5058.72 2461.21C5059.25 2460.85 5293.86 2302.14 5415.72 2239.71C5353.22 2192.21 5436.72 1882.71 5687.22 1936.21C5774.22 1967.21 5790.22 2042.71 5760.72 2125.71C5743.72 2147.71 5718.72 2144.71 5699.72 2125.71C5699.72 2117.71 5725.72 2055.32 5692.72 2036.71C5598.72 1983.71 5488.68 2076.21 5495.72 2167.21C5520.22 2302.21 5543.72 2302.21 5679.22 2467.21C6064.72 2167.21 6297.2 2157.91 6658.22 2204.71V2302.21C6291.72 2144.71 5911.72 2310.43 5718.72 2510.21C5857.72 2613.72 5772.22 3231.71 5382.22 3107.71C5090.33 2960.27 5604.34 2528.54 5604.72 2528.21C5525.99 2430.67 5466.63 2365.2 5436.72 2302.21C5436.57 2302.29 5213.98 2424.46 5090.22 2528.21C5382.22 2740.22 4989.72 3304.21 4735.72 3143.71C4427.79 2931.76 4989.45 2544.9 4989.72 2544.71L4782.22 2356.71C4694.72 2569.71 4074.58 2845.77 4129.22 2384.21C4128.9 2384.61 3804.11 2790.4 3579.22 2712.71C3414.34 2655.76 3519.56 2357.16 3519.72 2356.71C3413.88 2384.01 3357.44 2382.39 3260.72 2356.71C3260.74 2357.17 3274.06 2653.75 3067.22 2678.21C2919.33 2695.7 2919.22 2442.59 2919.22 2442.21C2919 2442.65 2667.31 2955.49 2464.22 2891.71C2265.94 2829.45 2494.94 2357.29 2495.22 2356.71C2122.72 2510.71 1955.72 1916.72 2367.72 1904.71C2549.72 1936.33 2464.22 2200.21 2367.72 2297.21C2368.13 2297.01 2588.23 2187.86 2605.22 2344.71C2615.77 2442.21 2391.97 2800.21 2525.72 2817.21C2658.18 2817.21 2811.94 2504.37 2967.72 2302.21C2985.72 2220.71 3048.22 2155.71 3082.72 2137.21C3098.46 2118.24 3113.22 2080.94 3161.22 2086.71C3248.72 2097.24 3288.72 2239.21 3260.72 2297.21H3552.22C3613.28 2175.33 3787.11 1948.99 3945.72 2059.71C4021.69 2112.75 3945.88 2296.82 3945.72 2297.21C3945.65 2297.23 3901.53 2311.37 3875.72 2302.21C3814.99 2280.66 3910.72 2204.71 3875.72 2137.21C3782.72 2038.21 3465.72 2557.21 3631.72 2642.71C3835.12 2677.7 4140.93 2302.56 4141.22 2302.21C4157.22 2158.21 4440.72 1982.21 4501.22 2137.21C4552.67 2320.05 4229.3 2396.58 4228.72 2396.71C4216.22 2699.21 4735.72 2494.71 4750.72 2289.21ZM5013.22 2579.71C4904.22 2625.71 4599.72 3071.21 4796.22 3085.71C5013.22 3085.71 5173.72 2770.71 5013.22 2579.71ZM5636.79 2559.71C5527.79 2605.71 5221.22 2994.21 5407.22 3044.21C5611.22 3079.71 5793.72 2733.21 5636.79 2559.71ZM3112.72 2239.21C3056.72 2232.21 2957.22 2652.21 3080.21 2599.21C3184.22 2566.71 3222.72 2342.22 3212.72 2320.71C3149.22 2284.71 3141.22 2275.21 3112.72 2239.21ZM4434.72 2161.71C4414 2158.05 4380.88 2161.7 4380.72 2161.71C4380.72 2161.71 4252.67 2255.21 4249.72 2313.71C4311.72 2326.71 4446.72 2192.21 4434.72 2161.71ZM2389.22 2025.21C2267.72 2006.71 2244.22 2259.71 2296.22 2268.71C2322.72 2306.21 2451.72 2045.72 2389.22 2025.21ZM3219.22 2264.71C3225.22 2261.07 3224.22 2130.62 3168.22 2160.71C3128.22 2182.21 3188.72 2268.71 3219.22 2264.71Z" fill="#FFF0D3"/>
</g>
<defs>
<linearGradient id="paint0_linear_13_158" x1="3322.21" y1="2390.72" x2="3389.43" y2="4163.2" gradientUnits="userSpaceOnUse">
<stop stop-color="#001A09"/>
<stop offset="1" stop-color="#967944"/>
</linearGradient>
<clipPath id="clip0_13_158">
<rect x="-633" y="-274" width="7334" height="4066" fill="white"/>
</clipPath>
</defs>
</svg>
