<svg width="170" height="679" viewBox="0 0 170 679" fill="none" xmlns="http://www.w3.org/2000/svg">
<g opacity="0.32" filter="url(#filter0_d_18_129)">
<g filter="url(#filter1_f_18_129)">
<path d="M11.0677 480.1H160.1V595.584C160.1 636.738 126.738 670.1 85.5838 670.1C44.4297 670.1 11.0677 636.738 11.0677 595.584V480.1Z" fill="#0A693D"/>
</g>
<rect x="23.1" y="435.1" width="121" height="45" fill="white"/>
<g filter="url(#filter2_f_18_129)">
<rect x="10.1" y="245.1" width="149.032" height="190" fill="#D60F1D"/>
</g>
<rect x="23.1" y="200.1" width="121" height="45" fill="white"/>
<g filter="url(#filter3_f_18_129)">
<path d="M10.1 84.6161C10.1 43.462 43.462 10.1 84.6161 10.1V10.1C125.77 10.1 159.132 43.462 159.132 84.6161V200.1H10.1V84.6161Z" fill="black"/>
</g>
</g>
<defs>
<filter id="filter0_d_18_129" x="6.09998" y="10.1" width="158" height="668" filterUnits="userSpaceOnUse" color-interpolation-filters="sRGB">
<feFlood flood-opacity="0" result="BackgroundImageFix"/>
<feColorMatrix in="SourceAlpha" type="matrix" values="0 0 0 0 0 0 0 0 0 0 0 0 0 0 0 0 0 0 127 0" result="hardAlpha"/>
<feOffset dy="4"/>
<feGaussianBlur stdDeviation="2"/>
<feComposite in2="hardAlpha" operator="out"/>
<feColorMatrix type="matrix" values="0 0 0 0 0 0 0 0 0 0 0 0 0 0 0 0 0 0 0.25 0"/>
<feBlend mode="normal" in2="BackgroundImageFix" result="effect1_dropShadow_18_129"/>
<feBlend mode="normal" in="SourceGraphic" in2="effect1_dropShadow_18_129" result="shape"/>
</filter>
<filter id="filter1_f_18_129" x="5.06769" y="474.1" width="161.032" height="202" filterUnits="userSpaceOnUse" color-interpolation-filters="sRGB">
<feFlood flood-opacity="0" result="BackgroundImageFix"/>
<feBlend mode="normal" in="SourceGraphic" in2="BackgroundImageFix" result="shape"/>
<feGaussianBlur stdDeviation="3" result="effect1_foregroundBlur_18_129"/>
</filter>
<filter id="filter2_f_18_129" x="4.09998" y="239.1" width="161.032" height="202" filterUnits="userSpaceOnUse" color-interpolation-filters="sRGB">
<feFlood flood-opacity="0" result="BackgroundImageFix"/>
<feBlend mode="normal" in="SourceGraphic" in2="BackgroundImageFix" result="shape"/>
<feGaussianBlur stdDeviation="3" result="effect1_foregroundBlur_18_129"/>
</filter>
<filter id="filter3_f_18_129" x="-2.47955e-05" y="-2.47955e-05" width="169.232" height="210.2" filterUnits="userSpaceOnUse" color-interpolation-filters="sRGB">
<feFlood flood-opacity="0" result="BackgroundImageFix"/>
<feBlend mode="normal" in="SourceGraphic" in2="BackgroundImageFix" result="shape"/>
<feGaussianBlur stdDeviation="5.05" result="effect1_foregroundBlur_18_129"/>
</filter>
</defs>
</svg>
