<svg width="683" height="681" viewBox="0 0 683 681" fill="none" xmlns="http://www.w3.org/2000/svg">
<path opacity="0.81" d="M78.2994 213.427L273.738 54.7689L331.303 52.0418L60.5804 269.429L78.2994 213.427Z" fill="#F87783" fill-opacity="0.16"/>
<path opacity="0.81" d="M53.7658 316.986L375.332 53.9776L420.848 61.0889L49.1418 362.753L53.7658 316.986Z" fill="#F87783" fill-opacity="0.16"/>
<path opacity="0.81" d="M56.8189 396.193L454.816 73.0638L485.347 89.2147L64.3455 431.127L56.8189 396.193Z" fill="#F87783" fill-opacity="0.16"/>
<path opacity="0.81" d="M78.0929 464.177L514.632 107.753L540.681 128.476L93.1369 494.342L78.0929 464.177Z" fill="#F87783" fill-opacity="0.16"/>
<path opacity="0.81" d="M112.764 518.939L563.494 151.385L583.965 177.575L132.939 543.089L112.764 518.939Z" fill="#F87783" fill-opacity="0.16"/>
<path opacity="0.81" d="M156.998 563.612L600.305 204.856L612.314 235.217L184.539 584.486L156.998 563.612Z" fill="#F87783" fill-opacity="0.16"/>
<path opacity="0.81" d="M214.919 602.129L621.383 269.804L629.307 305.783L251.324 614.853L214.919 602.129Z" fill="#F87783" fill-opacity="0.16"/>
<path opacity="0.81" d="M290.072 624.295L629.517 343.495L624.642 391.749L332.602 631.105L290.072 624.295Z" fill="#F87783" fill-opacity="0.16"/>
<path opacity="0.81" d="M387.781 627.132L614.144 440.943L572.123 518.613L471.789 601.447L387.781 627.132Z" fill="#F87783" fill-opacity="0.16"/>
<path d="M383.443 169.473C383.167 154.98 374.934 142.49 363.726 149.201L229.967 319.744C217.584 337.424 218.025 346.566 229.731 361.788L311.759 455.689C312.475 414.522 314.14 374.563 306.151 362.476L288.411 339.077L342.23 272.641L346.715 498.017L371.746 527.462C382.787 532.672 387.869 531.764 392.293 514.159L383.443 169.473Z" fill="url(#paint0_linear_63_35)"/>
<path d="M355.782 168.786C355.282 154.286 366.782 141.286 383.93 147.286L594.282 309.286C613.874 326.174 613.793 335.338 597.282 351.286L480.782 450.286C477.121 409.193 472.121 369.368 483.282 356.786L508.282 332.286L423.782 269.286L431.282 494.786L395.782 525.786C379.633 531.688 371.992 531.101 364.282 513.786L355.782 168.786Z" fill="url(#paint1_linear_63_35)"/>
<path d="M143.744 216.055C154.291 184.165 207.67 177.602 221.741 214.588L225.325 405.222L338.422 403.096C392.463 402.08 383.97 483.968 339.874 480.349L178.308 483.387C159.881 481.777 152.334 476.557 148.195 452.818L143.744 216.055Z" fill="url(#paint2_linear_63_35)"/>
<defs>
<linearGradient id="paint0_linear_63_35" x1="276" y1="180.5" x2="384.5" y2="375.5" gradientUnits="userSpaceOnUse">
<stop stop-color="#D60F1D"/>
<stop offset="0.5" stop-color="#87040D"/>
<stop offset="1" stop-color="#430206"/>
</linearGradient>
<linearGradient id="paint1_linear_63_35" x1="479.756" y1="143.151" x2="355" y2="624.5" gradientUnits="userSpaceOnUse">
<stop/>
<stop offset="0.698122" stop-color="#250104"/>
<stop offset="1" stop-color="#70080F"/>
</linearGradient>
<linearGradient id="paint2_linear_63_35" x1="127" y1="400" x2="361.5" y2="520" gradientUnits="userSpaceOnUse">
<stop stop-color="#08693B"/>
<stop offset="1" stop-color="#10CF74"/>
</linearGradient>
</defs>
</svg>
