<svg width="1169" height="1010" viewBox="0 0 1169 1010" fill="none" xmlns="http://www.w3.org/2000/svg">
<rect width="1169" height="1010" fill="white"/>
<path opacity="0.81" d="M295.299 302.427L490.738 143.769L548.303 141.042L277.58 358.429L295.299 302.427Z" fill="#F87783" fill-opacity="0.34"/>
<path opacity="0.81" d="M270.766 405.986L592.332 142.978L637.848 150.089L266.142 451.753L270.766 405.986Z" fill="#F87783" fill-opacity="0.34"/>
<path opacity="0.81" d="M273.819 485.193L671.816 162.064L702.347 178.215L281.346 520.127L273.819 485.193Z" fill="#F87783" fill-opacity="0.34"/>
<path opacity="0.81" d="M295.093 553.177L731.632 196.753L757.681 217.476L310.137 583.342L295.093 553.177Z" fill="#F87783" fill-opacity="0.34"/>
<path opacity="0.81" d="M329.764 607.939L780.494 240.385L800.965 266.575L349.939 632.089L329.764 607.939Z" fill="#F87783" fill-opacity="0.34"/>
<path opacity="0.81" d="M373.998 652.612L817.305 293.856L829.314 324.217L401.539 673.486L373.998 652.612Z" fill="#F87783" fill-opacity="0.34"/>
<path opacity="0.81" d="M431.919 691.129L838.383 358.804L846.307 394.783L468.324 703.853L431.919 691.129Z" fill="#F87783" fill-opacity="0.34"/>
<path opacity="0.81" d="M507.072 713.295L846.517 432.495L841.642 480.749L549.602 720.105L507.072 713.295Z" fill="#F87783" fill-opacity="0.34"/>
<path opacity="0.81" d="M604.781 716.132L831.144 529.943L789.123 607.613L688.789 690.447L604.781 716.132Z" fill="#F87783" fill-opacity="0.34"/>
<path d="M600.443 258.473C600.167 243.98 591.934 231.49 580.726 238.201L446.967 408.744C434.584 426.424 435.025 435.567 446.731 450.788L528.759 544.689C529.475 503.522 531.14 463.563 523.151 451.476L505.411 428.077L559.23 361.641L563.715 587.017L588.746 616.462C599.787 621.672 604.869 620.764 609.293 603.159L600.443 258.473Z" fill="url(#paint0_linear_51_53)"/>
<path d="M572.782 257.786C572.282 243.286 583.782 230.286 600.93 236.286L811.282 398.286C830.874 415.174 830.793 424.338 814.282 440.286L697.782 539.286C694.121 498.193 689.121 458.368 700.282 445.786L725.282 421.286L640.782 358.286L648.282 583.786L612.782 614.786C596.633 620.688 588.992 620.101 581.282 602.786L572.782 257.786Z" fill="url(#paint1_linear_51_53)"/>
<path d="M360.744 305.055C371.291 273.165 424.67 266.602 438.741 303.588L442.325 494.222L555.422 492.096C609.463 491.08 600.97 572.968 556.874 569.349L395.308 572.387C376.881 570.777 369.334 565.557 365.195 541.818L360.744 305.055Z" fill="url(#paint2_linear_51_53)"/>
<defs>
<linearGradient id="paint0_linear_51_53" x1="493" y1="269.5" x2="601.5" y2="464.5" gradientUnits="userSpaceOnUse">
<stop stop-color="#D60F1D"/>
<stop offset="0.5" stop-color="#87040D"/>
<stop offset="1" stop-color="#430206"/>
</linearGradient>
<linearGradient id="paint1_linear_51_53" x1="696.756" y1="232.151" x2="572" y2="713.5" gradientUnits="userSpaceOnUse">
<stop/>
<stop offset="0.698122" stop-color="#250104"/>
<stop offset="1" stop-color="#70080F"/>
</linearGradient>
<linearGradient id="paint2_linear_51_53" x1="344" y1="489" x2="578.5" y2="609" gradientUnits="userSpaceOnUse">
<stop stop-color="#08693B"/>
<stop offset="1" stop-color="#10CF74"/>
</linearGradient>
</defs>
</svg>
