<svg width="2970" height="2186" viewBox="0 0 2970 2186" fill="none" xmlns="http://www.w3.org/2000/svg">
<path d="M998.761 980.504H1318.54C1487.59 1150.94 1580.19 1152.58 1741.26 980.504H2053.37C2157.38 997.85 2207.31 1010.16 2250.5 1046.22C2425.57 1285.78 2482.84 1437.48 2452 1764.66C2404.39 1871.55 2365.64 1909.08 2271.9 1930.03H788.496C708.625 1907.48 664.59 1892.67 620.94 1764.66C559.339 1501.72 641.833 1339.32 815.874 1046.22C875.221 1010.04 913.573 994.177 998.761 980.504Z" fill="#6E7C60"/>
<path d="M1570.42 673.851H1471.86V743.943H1570.42V673.851Z" fill="#EDEDED"/>
<path d="M1739.07 897.27C1835.84 897.27 1914.29 818.816 1914.29 722.039C1914.29 625.262 1835.84 546.809 1739.07 546.809C1642.3 546.809 1563.85 625.262 1563.85 722.039C1563.85 818.816 1642.3 897.27 1739.07 897.27Z" fill="#D9D9D9" fill-opacity="0.16" stroke="#EDEDED" stroke-width="22"/>
<path d="M1305.4 897.27C1402.17 897.27 1480.62 818.816 1480.62 722.039C1480.62 625.262 1402.17 546.809 1305.4 546.809C1208.63 546.809 1130.18 625.262 1130.18 722.039C1130.18 818.816 1208.63 897.27 1305.4 897.27Z" fill="#D9D9D9" fill-opacity="0.16" stroke="#EDEDED" stroke-width="22"/>
<path d="M758.927 1210.49H2289.92L2241.74 2185.21H815.874L758.927 1210.49Z" fill="#B65336"/>
<path d="M1539.76 1808.47C1602.66 1808.47 1653.65 1757.47 1653.65 1694.57C1653.65 1631.66 1602.66 1580.67 1539.76 1580.67C1476.85 1580.67 1425.86 1631.66 1425.86 1694.57C1425.86 1757.47 1476.85 1808.47 1539.76 1808.47Z" fill="white"/>
<path d="M1263.43 34.5219C1476.28 -4.80118 1630.06 14.3598 1799.7 110.05C1839.54 151.022 1863.47 185.695 1878.59 224.38C1893.89 263.531 1900.6 307.88 1904.38 369.048C1902.34 387.844 1901.31 406.281 1900.19 422.514C1899.02 439.489 1897.76 453.827 1895.34 465.298C1892.84 477.124 1889.63 483.178 1886.6 485.993C1884.62 487.828 1881 489.958 1871.38 487.982L1867.96 487.279C1863 474.007 1856.9 455.163 1848.94 433.238C1839.68 407.755 1828.25 379.282 1814.61 356.855C1807.78 345.638 1799.98 335.231 1791.06 327.403C1782.1 319.542 1771.08 313.507 1758.18 313.093L1753.34 312.94L1749.28 315.597C1686.98 356.454 1648.13 356.802 1573.36 362.366C1421.84 358.486 1350.21 350.601 1278.87 302.971L1263.9 292.981L1256.41 309.343C1233.53 359.325 1215.53 402.995 1199.26 434.024C1191.12 449.541 1184.16 460.387 1178.18 466.733C1176.38 468.647 1174.91 469.876 1173.8 470.654C1167.74 462.389 1162.38 448.656 1157.96 423.957C1152.68 394.483 1149.17 352.215 1145.66 290.596C1160.39 249.929 1174.59 220.181 1194.1 193.348C1214.11 165.843 1240.25 140.643 1279.77 109.88L1291.13 101.04L1283.02 89.1446C1272.66 73.9381 1266.48 64.4255 1263.63 55.3713C1261.73 49.3094 1261.21 43.0002 1263.43 34.5219Z" fill="#EDEDED"/>
<path d="M151.128 1508.39C151.128 1489.03 166.818 1473.34 186.173 1473.34H475.288C494.643 1473.34 510.332 1489.03 510.332 1508.39V1864.19C510.332 1866.59 510.185 1868.98 509.307 1871.2C485.84 1930.56 181.783 1944.53 152.466 1871.9C151.391 1869.23 151.128 1866.34 151.128 1863.47V1508.39Z" fill="#DDB2B2"/>
<path d="M151.128 1510.58C111.628 1510.58 73.7445 1526.27 45.8131 1554.2C17.8819 1582.13 2.19026 1620.02 2.19026 1659.52C2.19026 1699.02 17.8819 1736.91 45.8131 1764.84C73.7445 1792.77 111.628 1808.47 151.128 1808.47V1756.32C125.457 1756.32 100.837 1746.12 82.6838 1727.97C64.5313 1709.82 54.3333 1685.19 54.3333 1659.52C54.3333 1633.85 64.5314 1609.23 82.6841 1591.07C100.837 1572.92 125.457 1562.72 151.128 1562.72V1510.58Z" fill="#DDB2B2"/>
<path d="M466.527 1346.3C459.956 1351.08 491.715 1317.82 439.148 1268.54C409.58 1245.54 360.741 1264.96 348.022 1286.99C335.303 1309.02 331.856 1335.2 338.44 1359.77C345.024 1384.34 361.098 1405.29 383.128 1418.01C400.354 1414.06 405.972 1409.04 399.916 1388.93C385.601 1380.66 375.153 1367.05 370.873 1351.08C366.596 1335.11 368.836 1318.09 377.1 1303.78C385.366 1289.46 383.949 1295.82 399.916 1291.54C443.529 1291.54 424.83 1342.81 439.148 1351.08L466.527 1346.3Z" fill="#DDB2B2"/>
<path d="M453.385 616.901H201.504C189.408 616.901 179.602 626.708 179.602 638.805V680.422C179.602 692.519 189.408 702.326 201.504 702.326H453.385C465.481 702.326 475.288 692.519 475.288 680.422V638.805C475.288 626.708 465.481 616.901 453.385 616.901Z" fill="#EDEDED"/>
<path d="M91.9911 616.901H21.9027C9.80615 616.901 0 626.708 0 638.805V680.422C0 692.519 9.80615 702.326 21.9027 702.326H91.9911C104.088 702.326 113.894 692.519 113.894 680.422V638.805C113.894 626.708 104.088 616.901 91.9911 616.901Z" fill="#EDEDED"/>
<path d="M832.301 478.907H427.102C415.005 478.907 405.199 488.714 405.199 500.811V542.428C405.199 554.525 415.005 564.332 427.102 564.332H832.301C844.397 564.332 854.204 554.525 854.204 542.428V500.811C854.204 488.714 844.397 478.907 832.301 478.907Z" fill="#EDEDED"/>
<path d="M821.35 752.705H578.23C566.134 752.705 556.327 762.511 556.327 774.608V816.226C556.327 828.323 566.134 838.129 578.23 838.129H821.35C833.446 838.129 843.252 828.323 843.252 816.226V774.608C843.252 762.511 833.446 752.705 821.35 752.705Z" fill="#B65336"/>
<path d="M2437.77 702.326H2238.45C2226.35 702.326 2216.55 712.133 2216.55 724.23V765.847C2216.55 777.944 2226.35 787.751 2238.45 787.751H2437.77C2449.86 787.751 2459.67 777.944 2459.67 765.847V724.23C2459.67 712.133 2449.86 702.326 2437.77 702.326Z" fill="#6E7C60"/>
<path d="M2770.69 564.332H2459.67C2447.57 564.332 2437.77 574.139 2437.77 586.236V627.853C2437.77 639.95 2447.57 649.757 2459.67 649.757H2770.69C2782.78 649.757 2792.59 639.95 2792.59 627.853V586.236C2792.59 574.139 2782.78 564.332 2770.69 564.332Z" fill="#6E7C60"/>
<path d="M2948.1 564.332H2867.06C2854.96 564.332 2845.15 574.139 2845.15 586.236V627.853C2845.15 639.95 2854.96 649.757 2867.06 649.757H2948.1C2960.19 649.757 2970 639.95 2970 627.853V586.236C2970 574.139 2960.19 564.332 2948.1 564.332Z" fill="#5C714A"/>
<path d="M2696.22 426.338H2220.93C2208.83 426.338 2199.03 436.145 2199.03 448.242V489.859C2199.03 501.956 2208.83 511.763 2220.93 511.763H2696.22C2708.31 511.763 2718.12 501.956 2718.12 489.859V448.242C2718.12 436.145 2708.31 426.338 2696.22 426.338Z" fill="#B65336"/>
<path d="M2415.86 242.346H2238.45C2226.35 242.346 2216.55 252.153 2216.55 264.25V305.867C2216.55 317.964 2226.35 327.771 2238.45 327.771H2415.86C2427.96 327.771 2437.77 317.964 2437.77 305.867V264.25C2437.77 252.153 2427.96 242.346 2415.86 242.346Z" fill="#EDEDED"/>
<path d="M242.024 1168.88C235.813 1150.83 241.067 1145.03 263.927 1141.5C299.852 1163.77 316.938 1182.22 326.35 1220.35C336.206 1300.3 259.546 1303.59 259.546 1359.44C259.546 1394.49 307.732 1420.77 307.732 1420.77C317.588 1438.29 300.066 1453.63 282.544 1447.06C282.544 1447.06 226.692 1407.63 223.407 1359.44C214.485 1303.19 297.876 1276.21 288.835 1229.11C288.835 1202.83 280.847 1187.5 242.024 1168.88Z" fill="#DDB2B2"/>
</svg>
