<svg width="1356" height="998" viewBox="0 0 1356 998" fill="none" xmlns="http://www.w3.org/2000/svg">
<path d="M456 447.641H602C679.184 525.453 721.459 526.202 795 447.641H937.5C984.986 455.56 1007.78 461.178 1027.5 477.641C1107.43 587.01 1133.58 656.27 1119.5 805.641C1097.76 854.441 1080.07 871.574 1037.27 881.141H360C323.534 870.843 303.429 864.083 283.5 805.641C255.375 685.596 293.039 611.455 372.5 477.641C399.596 461.125 417.106 453.883 456 447.641Z" fill="#6E7C60"/>
<rect x="672" y="307.641" width="45" height="32" fill="black"/>
<circle cx="794" cy="329.641" r="80" fill="#D9D9D9" fill-opacity="0.16" stroke="black" stroke-width="22"/>
<circle cx="596" cy="329.641" r="80" fill="#D9D9D9" fill-opacity="0.16" stroke="black" stroke-width="22"/>
<path d="M346.5 552.641H1045.5L1023.5 997.641H372.5L346.5 552.641Z" fill="#B65336"/>
<circle cx="703" cy="773.641" r="52" fill="white"/>
<path d="M576.837 15.7607C674.018 -2.19194 744.231 6.55586 821.681 50.2422C839.871 68.9478 850.796 84.7776 857.698 102.439C864.683 120.313 867.75 140.56 869.476 168.486C868.544 177.067 868.073 185.484 867.562 192.895C867.026 200.645 866.45 207.191 865.346 212.428C864.207 217.827 862.74 220.591 861.357 221.876C860.455 222.714 858.798 223.686 854.409 222.784L852.848 222.463C850.58 216.404 847.798 207.801 844.162 197.791C839.936 186.157 834.718 173.158 828.487 162.919C825.371 157.798 821.811 153.047 817.736 149.473C813.644 145.884 808.613 143.129 802.725 142.94L800.513 142.87L798.661 144.083C770.217 162.736 752.481 162.895 718.341 165.435C649.165 163.664 616.459 160.064 583.887 138.319L577.055 133.758L573.635 141.228C563.188 164.047 554.968 183.984 547.54 198.15C543.826 205.234 540.648 210.186 537.918 213.083C537.095 213.957 536.424 214.518 535.915 214.873C533.152 211.1 530.703 204.83 528.684 193.554C526.274 180.098 524.672 160.801 523.07 132.669C529.795 114.103 536.276 100.522 545.187 88.2715C554.32 75.7142 566.255 64.2096 584.3 50.165L589.485 46.1289L585.784 40.6982C581.052 33.7558 578.23 29.4129 576.931 25.2793C576.061 22.5118 575.826 19.6314 576.837 15.7607Z" fill="black" stroke="black" stroke-width="14"/>
<path d="M69 688.641C69 679.804 76.1634 672.641 85 672.641H217C225.837 672.641 233 679.804 233 688.641V851.082C233 852.174 232.933 853.267 232.532 854.282C221.818 881.382 82.9957 887.759 69.6106 854.598C69.1198 853.382 69 852.062 69 850.751V688.641Z" fill="black"/>
<path d="M69 689.641C50.9653 689.641 33.6692 696.805 20.9167 709.557C8.16427 722.31 1 739.606 1 757.641C0.999999 775.675 8.16426 792.971 20.9167 805.724C33.6692 818.476 50.9653 825.641 69 825.641L69 801.834C57.2792 801.834 46.0385 797.178 37.7506 788.89C29.4628 780.602 24.8067 769.361 24.8067 757.641C24.8067 745.92 29.4628 734.679 37.7507 726.391C46.0385 718.103 57.2792 713.447 69 713.447L69 689.641Z" fill="black"/>
<path d="M213 614.641C210 616.824 224.5 601.641 200.5 579.141C187 568.641 164.702 577.506 158.895 587.564C153.088 597.621 151.514 609.574 154.52 620.792C157.526 632.01 164.865 641.574 174.923 647.381C182.788 645.577 185.353 643.286 182.588 634.104C176.052 630.33 171.282 624.115 169.328 616.824C167.375 609.533 168.398 601.765 172.171 595.229C175.945 588.692 175.298 591.594 182.588 589.641C202.5 589.641 193.963 613.05 200.5 616.824L213 614.641Z" fill="black"/>
<rect x="82" y="281.641" width="135" height="39" rx="10" fill="black"/>
<rect y="281.641" width="52" height="39" rx="10" fill="black"/>
<rect x="185" y="218.641" width="205" height="39" rx="10" fill="black"/>
<rect x="254" y="343.641" width="131" height="39" rx="10" fill="#B65336"/>
<rect x="1012" y="320.641" width="111" height="39" rx="10" fill="#6E7C60"/>
<rect x="1113" y="257.641" width="162" height="39" rx="10" fill="#6E7C60"/>
<rect x="1299" y="257.641" width="57" height="39" rx="10" fill="#5C714A"/>
<rect x="1004" y="194.641" width="237" height="39" rx="10" fill="#B65336"/>
<rect x="1012" y="110.641" width="101" height="39" rx="10" fill="black"/>
<path d="M110.5 533.641C107.664 525.401 110.063 522.754 120.5 521.141C136.902 531.311 144.703 539.732 149 557.141C153.5 593.641 118.5 595.141 118.5 620.641C118.5 636.641 140.5 648.641 140.5 648.641C145 656.641 137 663.641 129 660.641C129 660.641 103.5 642.641 102 620.641C97.9264 594.961 136 582.641 131.872 561.141C131.872 549.141 128.225 542.141 110.5 533.641Z" fill="black"/>
</svg>
