<svg width="121" height="102" viewBox="0 0 121 102" fill="none" xmlns="http://www.w3.org/2000/svg">
<path d="M82.2523 40.7439C90.1491 56.6281 89.6815 75.3432 78.9979 90.1631C52.1588 80.6431 33.4074 68.9804 20.977 48.0655C28.8473 41.1708 37.3438 36.9395 47.0451 35.5452C57.0924 34.1011 68.6005 35.6752 82.2523 40.7439Z" fill="#D9D9D9" stroke="black" stroke-width="4"/>
<path d="M80.4916 38.6825C103.529 44.9264 108.126 63.7675 104.771 73.4505L104.749 73.5141L104.731 73.5793C102.996 79.9489 99.1913 84.8897 94.1647 87.7461C89.9092 90.1643 84.6798 91.1427 78.9027 90.1317C84.553 82.8414 87.177 71.9602 87.0349 61.7588C86.954 55.9578 85.9811 50.2327 84.0672 45.3258C83.1235 42.9064 81.9368 40.6524 80.4916 38.6825Z" fill="#D9D9D9" stroke="black" stroke-width="4"/>
<path d="M32.6603 14.2952C48.3275 11.853 72.3396 19.6996 94.6209 43.9736C80.3436 38.9963 67.2941 35.3903 55.3686 35.0479C42.4051 34.6757 30.763 38.1575 20.317 47.7919C14.8531 38.7143 14.0888 31.1188 16.29 25.546C18.6067 19.681 24.3948 15.5838 32.6603 14.2952Z" fill="#D9D9D9" stroke="black" stroke-width="3"/>
<path d="M78.0622 78.9362C75.842 77.011 79.9044 72.1236 78.9771 62.7757C77.1469 55.1803 77.9451 50.408 81.6706 50.8577C107.303 60.18 85.6082 88.9213 78.0622 78.9362Z" fill="#0B0B0B"/>
</svg>
