<svg width="6600" height="3712" viewBox="0 0 6600 3712" fill="none" xmlns="http://www.w3.org/2000/svg">
<g clip-path="url(#clip0_9_30)">
<rect width="6600" height="3712" fill="#C5B79B"/>
<g filter="url(#filter0_n_9_30)">
<path d="M-12 1725C81.8858 2120.54 508.138 2178.21 861.59 2072.56C811.592 2495.15 1095.6 2555.1 1140.53 2554.86C1424.19 2553.37 1880.81 2245.79 2181.01 1785.73C2121.27 1998.05 2232.73 1984.78 2219.17 2136.87C2148.88 2332.85 2234.14 2487.59 2512.88 2405.83C2512.88 2405.83 2297.99 2823.83 2474.72 2940.7C2646.93 3034.1 2904 2486 2904 2486C2904 2486 2910.01 2734.51 3072.18 2734.51C3255.93 2711.55 3232.5 2405.83 3232.5 2405.83C3311.83 2438.5 3485.37 2425.74 3543.61 2405.83C3543.61 2405.83 3419.6 2689.6 3582.27 2760.54C3796.65 2840.67 4100.5 2446 4100.5 2446C4109.54 2715.48 4416.2 2809.03 4795.76 2386.44C5053.98 2562.52 5018.21 2601.31 5471.56 2348.16C5676.5 2664 5702.5 2579 5702.5 2579C5702.5 2548.38 6166.2 2127.68 6679.5 2320.09V3792H-12V1725Z" fill="url(#paint0_linear_9_30)"/>
</g>
<path d="M4.71582 1429.72C430.216 89.2158 2190.22 -55.2842 2474.72 816.216C2747.72 2029.72 1437.72 2765.22 1044.22 2576.72C687.716 2415.72 1190.22 1794.72 1611.72 1945.72C1611.72 2014.22 1590.72 2014.22 1488.72 2014.22C1313.22 1995.22 832.216 2427.22 1186.72 2507.72C1611.72 2592.22 2609.22 1092.22 1980.72 587.216C645.716 -205.784 -632.785 1951.72 480.716 1992.72C718.216 1992.72 1011.22 1756.22 1097.72 1816.22C1152.22 1830.22 1204.72 1974.2 1044.22 2029.72C432.716 2241.22 -117.784 2142.22 4.71582 1429.72Z" fill="black"/>
<path fill-rule="evenodd" clip-rule="evenodd" d="M1203.22 944.716C1268.29 894.994 1293.5 900.676 1322.22 959.216C1308.37 1044.09 1263.61 1208.97 1250.22 1291.72C1246.67 1313.63 1203.22 1338.22 1177.72 1309.72C974.716 2101.72 1060.22 1854.22 905.716 2447.22C1014.72 2638.72 910.715 3671.71 799.716 3728.72C741.216 3768.22 679.215 3694.72 685.716 3646.22C600.715 3329.21 872.215 1682.22 1203.22 944.716ZM888.216 2574.72C844.716 2539.22 781.714 2912.22 767.216 3078.22C742.718 3358.72 728.716 3652.22 767.216 3632.72C840.716 3646.21 953.715 2557.22 888.216 2574.72Z" fill="black"/>
<path fill-rule="evenodd" clip-rule="evenodd" d="M4738.22 2357.21C4629.22 2197.21 4769.72 1930.71 5019.72 1950.71C5177.71 1987.21 5142.22 2154.71 5116.22 2179.71H5046.22C5046.22 2135.71 5077.72 2063.71 5005.22 2035.21C4801.72 2056.21 4686.22 2272.71 5046.22 2529.21C5046.75 2528.85 5281.36 2370.14 5403.22 2307.71C5340.72 2260.21 5424.22 1950.71 5674.72 2004.21C5761.72 2035.21 5777.72 2110.71 5748.22 2193.71C5731.22 2215.71 5706.22 2212.71 5687.22 2193.71C5687.22 2185.71 5713.22 2123.32 5680.22 2104.71C5586.22 2051.71 5476.18 2144.21 5483.22 2235.21C5507.72 2370.21 5531.22 2370.21 5666.72 2535.21C6052.22 2235.21 6284.7 2225.91 6645.72 2272.71V2370.21C6279.22 2212.71 5899.22 2378.43 5706.22 2578.21C5845.22 2681.72 5759.72 3299.71 5369.72 3175.71C5077.83 3028.27 5591.84 2596.53 5592.22 2596.21C5513.49 2498.67 5454.13 2433.2 5424.22 2370.21C5424.07 2370.29 5201.48 2492.46 5077.72 2596.21C5369.72 2808.21 4977.22 3372.21 4723.22 3211.71C4415.29 2999.76 4976.95 2612.9 4977.22 2612.71L4769.72 2424.71C4682.22 2637.71 4062.08 2913.77 4116.72 2452.21C4116.4 2452.61 3791.61 2858.4 3566.72 2780.71C3401.84 2723.76 3507.06 2425.16 3507.22 2424.71C3401.38 2452.01 3344.94 2450.39 3248.22 2424.71C3248.24 2425.17 3261.56 2721.75 3054.72 2746.21C2906.83 2763.7 2906.72 2510.59 2906.72 2510.21C2906.5 2510.65 2654.81 3023.49 2451.72 2959.71C2253.44 2897.45 2482.44 2425.29 2482.72 2424.71C2110.22 2578.71 1943.22 1984.72 2355.22 1972.71C2537.22 2004.33 2451.72 2268.21 2355.22 2365.21C2355.63 2365.01 2575.73 2255.86 2592.72 2412.71C2603.27 2510.21 2379.47 2868.21 2513.22 2885.21C2645.68 2885.21 2799.44 2572.37 2955.22 2370.21C2973.22 2288.71 3035.72 2223.71 3070.22 2205.21C3085.96 2186.24 3100.72 2148.94 3148.72 2154.71C3236.22 2165.24 3276.22 2307.21 3248.22 2365.21H3539.72C3600.78 2243.33 3774.61 2016.99 3933.22 2127.71C4009.19 2180.75 3933.38 2364.82 3933.22 2365.21C3933.15 2365.23 3889.03 2379.37 3863.22 2370.21C3802.49 2348.66 3898.22 2272.71 3863.22 2205.21C3770.22 2106.21 3453.22 2625.21 3619.22 2710.71C3822.62 2745.7 4128.43 2370.56 4128.72 2370.21C4144.72 2226.21 4428.22 2050.21 4488.72 2205.21C4540.17 2388.05 4216.8 2464.58 4216.22 2464.71C4203.72 2767.21 4723.22 2562.71 4738.22 2357.21ZM5000.72 2647.71C4891.72 2693.71 4587.22 3139.21 4783.72 3153.71C5000.72 3153.71 5161.22 2838.71 5000.72 2647.71ZM5624.29 2627.71C5515.29 2673.71 5208.72 3062.21 5394.72 3112.21C5598.72 3147.71 5781.22 2801.21 5624.29 2627.71ZM3100.22 2307.21C3044.22 2300.21 2944.72 2720.21 3067.71 2667.21C3171.72 2634.71 3210.22 2410.22 3200.22 2388.71C3136.72 2352.71 3128.72 2343.21 3100.22 2307.21ZM4422.22 2229.71C4401.5 2226.05 4368.38 2229.7 4368.22 2229.71C4368.22 2229.71 4240.17 2323.21 4237.22 2381.71C4299.22 2394.71 4434.22 2260.21 4422.22 2229.71ZM2376.72 2093.21C2255.22 2074.71 2231.72 2327.71 2283.72 2336.71C2310.22 2374.21 2439.22 2113.71 2376.72 2093.21ZM3206.72 2332.71C3212.72 2329.07 3211.72 2198.62 3155.72 2228.71C3115.72 2250.21 3176.22 2336.71 3206.72 2332.71Z" fill="black"/>
</g>
<defs>
<filter id="filter0_n_9_30" x="-12" y="1725" width="6691.5" height="2067" filterUnits="userSpaceOnUse" color-interpolation-filters="sRGB">
<feFlood flood-opacity="0" result="BackgroundImageFix"/>
<feBlend mode="normal" in="SourceGraphic" in2="BackgroundImageFix" result="shape"/>
<feTurbulence type="fractalNoise" baseFrequency="2 2" stitchTiles="stitch" numOctaves="3" result="noise" seed="1387" />
<feColorMatrix in="noise" type="luminanceToAlpha" result="alphaNoise" />
<feComponentTransfer in="alphaNoise" result="coloredNoise1">
<feFuncA type="discrete" tableValues="0 0 0 0 0 0 0 0 0 0 0 0 0 1 1 1 1 1 1 1 1 1 1 1 1 1 1 1 1 1 1 1 1 1 1 1 1 0 0 0 0 0 0 0 0 0 0 0 0 0 0 0 0 0 0 0 0 0 0 0 0 0 0 0 0 0 0 0 0 0 0 0 0 0 0 0 0 0 0 0 0 0 0 0 0 0 0 0 0 0 0 0 0 0 0 0 0 0 0 0 "/>
</feComponentTransfer>
<feComposite operator="in" in2="shape" in="coloredNoise1" result="noise1Clipped" />
<feFlood flood-color="rgba(0, 0, 0, 0.25)" result="color1Flood" />
<feComposite operator="in" in2="noise1Clipped" in="color1Flood" result="color1" />
<feMerge result="effect1_noise_9_30">
<feMergeNode in="shape" />
<feMergeNode in="color1" />
</feMerge>
</filter>
<linearGradient id="paint0_linear_9_30" x1="8965.5" y1="2183" x2="-3272" y2="2094.5" gradientUnits="userSpaceOnUse">
<stop offset="0.1294" stop-color="#261912"/>
<stop offset="0.44836" stop-color="#DEB464"/>
<stop offset="0.805405" stop-color="#261912"/>
</linearGradient>
<clipPath id="clip0_9_30">
<rect width="6600" height="3712" fill="white"/>
</clipPath>
</defs>
</svg>
