<svg width="1987" height="4320" viewBox="0 0 1987 4320" fill="none" xmlns="http://www.w3.org/2000/svg">
<g clip-path="url(#clip0_31_45)">
<rect width="1987" height="4320" fill="#F3E7CF"/>
<g filter="url(#filter0_n_31_45)">
<path d="M-19.4861 1126.2C22.9796 1206.1 94.6084 1195.78 217.39 1183.78C200.036 1330.46 298.614 1351.26 314.206 1351.18C412.664 1350.66 571.154 1243.91 675.351 1084.22C654.614 1157.92 693.3 1153.31 688.595 1206.1C664.198 1274.12 693.79 1327.83 790.539 1299.46C790.539 1299.46 715.954 1444.54 777.295 1485.1C837.067 1517.52 926.295 1327.28 926.295 1327.28C926.295 1327.28 928.38 1413.54 984.667 1413.54C1048.45 1405.57 1040.31 1299.46 1040.31 1299.46C1067.85 1310.79 1128.08 1306.36 1148.3 1299.46C1148.3 1299.46 1105.26 1397.95 1161.72 1422.57C1236.13 1450.38 1341.59 1313.4 1341.59 1313.4C1344.73 1406.93 1451.17 1439.4 1582.91 1292.72C1672.53 1353.84 1660.12 1367.3 1817.48 1279.44C1888.61 1389.06 1888.91 1356.95 1888.91 1356.95C1888.91 1346.32 1928.82 1326.96 2013.24 1279.44V4623.22H-29.7188L-19.4861 1126.2Z" fill="url(#paint0_linear_31_45)"/>
</g>
<path d="M-80.0245 960.652C67.6633 495.375 678.546 445.22 777.294 747.711C872.05 1168.91 417.359 1424.19 280.778 1358.77C157.04 1302.89 331.453 1087.34 477.753 1139.75C477.753 1163.53 470.464 1163.53 435.061 1163.53C374.146 1156.93 207.194 1306.88 330.239 1334.82C477.753 1364.15 823.978 843.508 605.83 668.227C142.462 392.982 -301.296 1141.83 85.1914 1156.07C167.626 1156.07 269.324 1073.98 299.347 1094.8C318.264 1099.66 336.486 1149.64 280.778 1168.91C68.531 1242.32 -122.543 1207.96 -80.0245 960.652Z" fill="black"/>
<path d="M335.964 792.313C358.552 775.055 367.299 777.026 377.268 797.345C372.462 826.803 356.928 884.032 352.277 912.753C351.046 920.359 335.964 928.893 327.113 919.001C256.654 1193.9 286.33 1107.99 232.704 1313.82C270.537 1380.29 234.439 1738.83 195.912 1758.62C175.608 1772.33 154.088 1746.82 156.344 1729.98C126.841 1619.95 221.076 1048.29 335.964 792.313ZM226.63 1358.07C211.532 1345.75 189.663 1475.22 184.631 1532.83C176.128 1630.19 171.268 1732.06 184.631 1725.3C210.142 1729.98 249.364 1352 226.63 1358.07Z" fill="black"/>
<path d="M1562.92 1282.58C1525.09 1227.04 1573.85 1134.54 1660.63 1141.49C1715.47 1154.16 1703.15 1212.29 1694.12 1220.97H1669.83C1669.83 1205.7 1680.76 1180.71 1655.59 1170.82C1584.96 1178.1 1544.87 1253.25 1669.83 1342.28C1670.06 1342.12 1751.45 1287.06 1793.74 1265.4C1772.04 1248.91 1801.03 1141.49 1887.97 1160.06C1918.17 1170.82 1923.72 1197.02 1913.48 1225.83C1907.58 1233.47 1898.91 1232.42 1892.31 1225.83C1892.31 1223.05 1901.34 1201.4 1889.88 1194.94C1857.26 1176.54 1819.06 1208.65 1821.5 1240.23C1830.01 1287.09 1838.16 1287.09 1885.2 1344.36C2019 1240.23 2099.69 1237.01 2225 1253.25V1287.09C2097.79 1232.43 1965.89 1289.94 1898.91 1359.29C1947.15 1395.21 1917.48 1609.71 1782.11 1566.67C1680.85 1515.52 1859.02 1365.8 1859.34 1365.53C1832.01 1331.68 1811.41 1308.95 1801.03 1287.09C1800.81 1287.21 1723.67 1329.56 1680.76 1365.53C1782.11 1439.12 1645.88 1634.88 1557.71 1579.17C1450.91 1505.65 1645.52 1371.51 1645.88 1371.26L1573.85 1306.01C1543.48 1379.94 1328.24 1475.75 1347.2 1315.55C1347.04 1315.76 1234.34 1456.53 1156.3 1429.57C1099.07 1409.8 1135.61 1306.14 1135.65 1306.01C1098.91 1315.48 1079.32 1314.92 1045.75 1306.01C1045.76 1306.15 1050.39 1409.11 978.591 1417.6C927.275 1423.67 927.222 1335.87 927.222 1335.68C927.124 1335.88 839.777 1513.84 769.295 1491.7C700.464 1470.09 779.981 1306.16 780.055 1306.01C650.763 1359.46 592.798 1153.29 735.801 1149.12C798.971 1160.1 769.295 1251.69 735.801 1285.36C736.034 1285.24 812.343 1247.43 818.235 1301.84C821.899 1335.68 744.217 1459.94 790.641 1465.84C836.619 1465.84 889.986 1357.26 944.055 1287.09C950.303 1258.8 971.996 1236.24 983.971 1229.82C989.434 1223.24 994.558 1210.29 1011.22 1212.29C1041.59 1215.95 1055.47 1265.22 1045.75 1285.36H1146.93C1168.13 1243.05 1228.46 1164.49 1283.51 1202.92C1309.86 1221.31 1283.61 1285.11 1283.51 1285.36C1283.49 1285.36 1268.17 1290.27 1259.22 1287.09C1238.14 1279.61 1271.36 1253.25 1259.22 1229.82C1226.94 1195.46 1116.91 1375.6 1174.52 1405.28C1245.1 1417.42 1351.2 1287.29 1351.37 1287.09C1356.92 1237.11 1455.32 1176.02 1476.32 1229.82C1494.18 1293.29 1381.92 1319.85 1381.74 1319.89C1377.4 1424.89 1557.71 1353.91 1562.92 1282.58ZM1654.04 1383.41C1616.21 1399.38 1510.52 1554.01 1578.72 1559.04C1654.04 1559.04 1709.75 1449.7 1654.04 1383.41ZM1870.48 1376.47C1832.65 1392.43 1726.24 1527.28 1790.8 1544.63C1861.61 1556.96 1924.95 1436.69 1870.48 1376.47ZM994.383 1265.22C974.947 1262.8 940.41 1408.57 983.102 1390.18C1019.2 1378.9 1032.56 1300.98 1029.09 1293.51C1007.05 1281.02 1004.28 1277.72 994.383 1265.22ZM1453.25 1238.32C1446.04 1237.05 1434.5 1238.32 1434.5 1238.32C1434.42 1238.39 1390.06 1270.8 1389.03 1291.08C1410.55 1295.59 1457.41 1248.91 1453.25 1238.32ZM743.263 1190.95C701.092 1184.53 692.935 1272.34 710.983 1275.46C720.181 1288.48 764.955 1198.06 743.263 1190.95ZM1031.35 1274.08C1033.43 1272.81 1033.09 1227.53 1013.65 1237.98C999.766 1245.44 1020.77 1275.46 1031.35 1274.08Z" fill="black"/>
</g>
<defs>
<filter id="filter0_n_31_45" x="-29.7188" y="1084.22" width="2042.96" height="3539" filterUnits="userSpaceOnUse" color-interpolation-filters="sRGB">
<feFlood flood-opacity="0" result="BackgroundImageFix"/>
<feBlend mode="normal" in="SourceGraphic" in2="BackgroundImageFix" result="shape"/>
<feTurbulence type="fractalNoise" baseFrequency="2 2" stitchTiles="stitch" numOctaves="3" result="noise" seed="1387" />
<feColorMatrix in="noise" type="luminanceToAlpha" result="alphaNoise" />
<feComponentTransfer in="alphaNoise" result="coloredNoise1">
<feFuncA type="discrete" tableValues="0 0 0 0 0 0 0 0 0 0 0 0 0 0 0 0 0 0 0 0 0 0 1 1 1 1 1 1 0 0 0 0 0 0 0 0 0 0 0 0 0 0 0 0 0 0 0 0 0 0 0 0 0 0 0 0 0 0 0 0 0 0 0 0 0 0 0 0 0 0 0 0 0 0 0 0 0 0 0 0 0 0 0 0 0 0 0 0 0 0 0 0 0 0 0 0 0 0 0 0 "/>
</feComponentTransfer>
<feComposite operator="in" in2="shape" in="coloredNoise1" result="noise1Clipped" />
<feFlood flood-color="rgba(0, 0, 0, 0.25)" result="color1Flood" />
<feComposite operator="in" in2="noise1Clipped" in="color1Flood" result="color1" />
<feMerge result="effect1_noise_31_45">
<feMergeNode in="shape" />
<feMergeNode in="color1" />
</feMerge>
</filter>
<linearGradient id="paint0_linear_31_45" x1="1137.83" y1="6507.06" x2="1095.37" y2="-3438.09" gradientUnits="userSpaceOnUse">
<stop offset="0.133097" stop-color="#261912"/>
<stop offset="0.506424" stop-color="#FBC663"/>
<stop offset="0.622075" stop-color="#DEB464"/>
<stop offset="0.713633" stop-color="#261912"/>
</linearGradient>
<clipPath id="clip0_31_45">
<rect width="1987" height="4320" fill="white"/>
</clipPath>
</defs>
</svg>
