<svg width="1987" height="4320" viewBox="0 0 1987 4320" fill="none" xmlns="http://www.w3.org/2000/svg">
<g clip-path="url(#clip0_31_45)">
<rect width="1987" height="4320" fill="#F3E7CF"/>
<g filter="url(#filter0_n_31_45)">
<path d="M-6 1477C36.4657 1556.9 18.6062 1525.01 141.388 1513C124.034 1659.68 222.612 1680.49 238.204 1680.41C336.662 1679.89 495.152 1573.13 599.349 1413.45C578.612 1487.14 617.298 1482.53 612.593 1535.32C588.196 1603.35 617.788 1657.06 714.536 1628.68C714.536 1628.68 639.952 1773.76 701.293 1814.33C761.065 1846.75 850.293 1656.5 850.293 1656.5C850.293 1656.5 852.378 1742.76 908.665 1742.76C972.445 1734.79 964.312 1628.68 964.312 1628.68C991.846 1640.02 1052.08 1635.59 1072.3 1628.68C1072.3 1628.68 1029.25 1727.17 1085.72 1751.8C1160.13 1779.61 1265.59 1642.62 1265.59 1642.62C1268.73 1736.15 1375.17 1768.62 1506.91 1621.95C1596.53 1683.06 1584.12 1696.53 1741.47 1608.66C1812.61 1718.29 1812.91 1686.17 1812.91 1686.17C1812.91 1675.54 1904.08 1630.52 1988.5 1583V4632L-6 4642V1477Z" fill="url(#paint0_linear_31_45)"/>
</g>
<path d="M-156.025 1289.88C-8.33667 824.598 602.546 774.443 701.294 1076.93C796.05 1498.13 341.359 1753.42 204.778 1687.99C81.0396 1632.11 255.453 1416.56 401.753 1468.98C401.753 1492.75 394.464 1492.75 359.061 1492.75C298.146 1486.16 131.194 1636.1 254.239 1664.04C401.753 1693.37 747.978 1172.73 529.83 997.45C66.4617 722.206 -377.296 1471.06 9.19137 1485.29C91.6259 1485.29 193.324 1403.2 223.347 1424.03C242.264 1428.89 260.486 1478.86 204.778 1498.13C-7.46898 1571.54 -198.543 1537.18 -156.025 1289.88Z" fill="black"/>
<path d="M259.964 1121.54C282.552 1104.28 291.299 1106.25 301.268 1126.57C296.462 1156.03 280.928 1213.26 276.277 1241.98C275.046 1249.58 259.964 1258.12 251.113 1248.22C180.654 1523.12 210.33 1437.22 156.704 1643.04C194.537 1709.51 158.439 2068.06 119.912 2087.84C99.6075 2101.55 78.0881 2076.04 80.3439 2059.21C50.8407 1949.18 145.076 1377.52 259.964 1121.54ZM150.63 1687.3C135.532 1674.97 113.663 1804.44 108.631 1862.06C100.128 1959.42 95.2684 2061.29 108.631 2054.52C134.142 2059.21 173.364 1681.23 150.63 1687.3Z" fill="black"/>
<path d="M1486.92 1611.8C1449.09 1556.27 1497.85 1463.77 1584.63 1470.71C1639.47 1483.38 1627.15 1541.52 1618.12 1550.19H1593.83C1593.83 1534.92 1604.76 1509.93 1579.59 1500.04C1508.96 1507.33 1468.87 1582.47 1593.83 1671.5C1594.06 1671.35 1675.45 1616.28 1717.74 1594.62C1696.04 1578.13 1725.03 1470.71 1811.97 1489.28C1842.17 1500.04 1847.72 1526.25 1837.48 1555.05C1831.58 1562.69 1822.91 1561.65 1816.31 1555.05C1816.31 1552.28 1825.34 1530.62 1813.88 1524.16C1781.26 1505.77 1743.06 1537.87 1745.5 1569.46C1754.01 1616.31 1762.16 1616.32 1809.2 1673.59C1943 1569.46 2023.69 1566.23 2149 1582.47V1616.32C2021.79 1561.65 1889.89 1619.17 1822.91 1688.51C1871.15 1724.43 1841.48 1938.94 1706.11 1895.9C1604.85 1844.75 1783.02 1695.02 1783.34 1694.76C1756.01 1660.9 1735.41 1638.18 1725.03 1616.32C1724.81 1616.44 1647.67 1658.78 1604.76 1694.76C1706.11 1768.34 1569.88 1964.1 1481.71 1908.39C1374.91 1834.88 1569.52 1700.73 1569.88 1700.49L1497.85 1635.23C1467.48 1709.16 1252.24 1804.98 1271.2 1644.78C1271.04 1644.98 1158.34 1785.76 1080.3 1758.8C1023.07 1739.02 1059.61 1635.36 1059.65 1635.23C1022.91 1644.71 1003.32 1644.14 969.754 1635.23C969.761 1635.37 974.391 1738.33 902.591 1746.82C851.275 1752.89 851.222 1665.09 851.222 1664.91C851.124 1665.11 763.777 1843.06 693.295 1820.93C624.464 1799.31 703.981 1635.38 704.055 1635.23C574.763 1688.68 516.798 1482.51 659.801 1478.35C722.971 1489.32 693.295 1580.91 659.801 1614.58C660.034 1614.46 736.343 1576.66 742.235 1631.07C745.899 1664.91 668.217 1789.17 714.641 1795.07C760.619 1795.07 813.986 1686.48 868.055 1616.32C874.303 1588.03 895.996 1565.47 907.971 1559.04C913.434 1552.46 918.558 1539.51 935.218 1541.52C965.588 1545.17 979.472 1594.45 969.754 1614.58H1070.93C1092.13 1572.27 1152.46 1493.72 1207.51 1532.15C1233.86 1550.54 1207.61 1614.33 1207.51 1614.58C1207.49 1614.59 1192.17 1619.49 1183.22 1616.32C1162.14 1608.83 1195.36 1582.47 1183.22 1559.04C1150.94 1524.68 1040.91 1704.82 1098.52 1734.5C1169.1 1746.64 1275.2 1616.52 1275.37 1616.32C1280.92 1566.33 1379.32 1505.25 1400.32 1559.04C1418.18 1622.51 1305.92 1649.07 1305.74 1649.12C1301.4 1754.11 1481.71 1683.13 1486.92 1611.8ZM1578.04 1712.63C1540.21 1728.6 1434.52 1883.23 1502.72 1888.26C1578.04 1888.26 1633.75 1778.93 1578.04 1712.63ZM1794.48 1705.69C1756.65 1721.66 1650.24 1856.5 1714.8 1873.86C1785.61 1886.18 1848.95 1765.91 1794.48 1705.69ZM918.383 1594.45C898.947 1592.02 864.41 1737.8 907.102 1719.4C943.2 1708.12 956.563 1630.2 953.092 1622.74C931.053 1610.24 928.275 1606.94 918.383 1594.45ZM1377.25 1567.55C1370.04 1566.28 1358.5 1567.55 1358.5 1567.55C1358.42 1567.61 1314.06 1600.02 1313.03 1620.31C1334.55 1624.82 1381.41 1578.14 1377.25 1567.55ZM667.263 1520.17C625.092 1513.75 616.935 1601.56 634.983 1604.69C644.181 1617.7 688.955 1527.29 667.263 1520.17ZM955.352 1603.3C957.434 1602.03 957.086 1556.75 937.65 1567.2C923.766 1574.66 944.765 1604.69 955.352 1603.3Z" fill="black"/>
</g>
<defs>
<filter id="filter0_n_31_45" x="-6" y="1413.45" width="1994.5" height="3228.55" filterUnits="userSpaceOnUse" color-interpolation-filters="sRGB">
<feFlood flood-opacity="0" result="BackgroundImageFix"/>
<feBlend mode="normal" in="SourceGraphic" in2="BackgroundImageFix" result="shape"/>
<feTurbulence type="fractalNoise" baseFrequency="2 2" stitchTiles="stitch" numOctaves="3" result="noise" seed="1387" />
<feColorMatrix in="noise" type="luminanceToAlpha" result="alphaNoise" />
<feComponentTransfer in="alphaNoise" result="coloredNoise1">
<feFuncA type="discrete" tableValues="0 0 0 0 0 0 0 0 0 0 0 0 0 0 0 0 0 0 0 0 0 0 1 1 1 1 1 1 0 0 0 0 0 0 0 0 0 0 0 0 0 0 0 0 0 0 0 0 0 0 0 0 0 0 0 0 0 0 0 0 0 0 0 0 0 0 0 0 0 0 0 0 0 0 0 0 0 0 0 0 0 0 0 0 0 0 0 0 0 0 0 0 0 0 0 0 0 0 0 0 "/>
</feComponentTransfer>
<feComposite operator="in" in2="shape" in="coloredNoise1" result="noise1Clipped" />
<feFlood flood-color="rgba(0, 0, 0, 0.25)" result="color1Flood" />
<feComposite operator="in" in2="noise1Clipped" in="color1Flood" result="color1" />
<feMerge result="effect1_noise_31_45">
<feMergeNode in="shape" />
<feMergeNode in="color1" />
</feMerge>
</filter>
<linearGradient id="paint0_linear_31_45" x1="1061.83" y1="6836.29" x2="1019.37" y2="-3108.87" gradientUnits="userSpaceOnUse">
<stop offset="0.133097" stop-color="#261912"/>
<stop offset="0.506424" stop-color="#FBC663"/>
<stop offset="0.622075" stop-color="#DEB464"/>
<stop offset="0.713633" stop-color="#261912"/>
</linearGradient>
<clipPath id="clip0_31_45">
<rect width="1987" height="4320" fill="white"/>
</clipPath>
</defs>
</svg>
