<svg width="6644" height="4143" viewBox="0 0 6644 4143" fill="none" xmlns="http://www.w3.org/2000/svg">
<g clip-path="url(#clip0_9_30)">
<rect width="6644" height="4143" fill="#F3E7CF"/>
<g filter="url(#filter0_n_9_30)">
<path d="M-7.5 2077C86.3858 2472.54 512.638 2530.21 866.09 2424.56C816.092 2847.15 1100.1 2907.1 1145.03 2906.86C1428.69 2905.37 1885.31 2597.79 2185.51 2137.73C2125.77 2350.05 2237.23 2336.78 2223.67 2488.87C2153.38 2684.85 2238.64 2839.59 2517.38 2757.83C2517.38 2757.83 2302.49 3175.83 2479.22 3292.7C2651.43 3386.1 2908.5 2838 2908.5 2838C2908.5 2838 2914.51 3086.51 3076.68 3086.51C3260.43 3063.55 3237 2757.83 3237 2757.83C3316.33 2790.5 3489.87 2777.74 3548.11 2757.83C3548.11 2757.83 3424.1 3041.6 3586.77 3112.54C3801.15 3192.67 4105 2798 4105 2798C4114.04 3067.48 4420.7 3161.03 4800.26 2738.44C5058.48 2914.52 5022.71 2953.31 5476.06 2700.16C5681 3016 5707 2931 5707 2931C5707 2900.38 6170.7 2479.68 6684 2672.09V4144H-7.5V2077Z" fill="url(#paint0_linear_9_30)"/>
</g>
<path d="M1 1794C426.5 453.5 2186.5 309 2471 1180.5C2744 2394 1434 3129.5 1040.5 2941C684 2780 1186.5 2159 1608 2310C1608 2378.5 1587 2378.5 1485 2378.5C1309.5 2359.5 828.5 2791.5 1183 2872C1608 2956.5 2605.5 1456.5 1977 951.5C642 158.5 -636.5 2316 477 2357C714.5 2357 1007.5 2120.5 1094 2180.5C1148.5 2194.5 1201 2338.49 1040.5 2394C429 2605.5 -121.5 2506.5 1 1794Z" fill="black"/>
<path d="M1199.5 1309C1264.58 1259.28 1289.78 1264.96 1318.5 1323.5C1304.65 1408.37 1259.9 1573.25 1246.5 1656C1242.95 1677.91 1199.5 1702.5 1174 1674C971 2466 1056.5 2218.5 902 2811.5C1011 3003 907 4036 796 4093C737.5 4132.5 675.5 4059 682 4010.5C596.999 3693.5 868.5 2046.5 1199.5 1309ZM884.5 2939C841 2903.5 777.998 3276.5 763.5 3442.5C739.002 3723 725 4016.5 763.5 3997C837 4010.5 949.999 2921.5 884.5 2939Z" fill="black"/>
<path d="M4734.5 2721.5C4625.5 2561.5 4766 2295 5016 2315C5174 2351.5 5138.5 2518.99 5112.5 2544H5042.5C5042.5 2500 5074 2428 5001.5 2399.5C4798 2420.5 4682.5 2637 5042.5 2893.5C5043.04 2893.13 5277.64 2734.43 5399.5 2672C5337 2624.5 5420.5 2315 5671 2368.5C5758 2399.5 5774 2475 5744.5 2558C5727.5 2580 5702.5 2577 5683.5 2558C5683.5 2550 5709.5 2487.6 5676.5 2469C5582.5 2416 5472.46 2508.5 5479.5 2599.5C5504 2734.5 5527.5 2734.5 5663 2899.5C6048.5 2599.5 6280.99 2590.2 6642 2637V2734.5C6275.5 2577 5895.5 2742.71 5702.5 2942.5C5841.5 3046 5756 3664 5366 3540C5074.11 3392.55 5588.12 2960.82 5588.5 2960.5C5509.77 2862.95 5450.42 2797.49 5420.5 2734.5C5420.36 2734.58 5197.76 2856.74 5074 2960.5C5366 3172.5 4973.5 3736.5 4719.5 3576C4411.57 3364.05 4973.23 2977.18 4973.5 2977L4766 2789C4678.5 3002 4058.36 3278.05 4113 2816.5C4112.69 2816.89 3787.89 3222.69 3563 3145C3398.13 3088.04 3503.35 2789.44 3503.5 2789C3397.66 2816.29 3341.22 2814.67 3244.5 2789C3244.52 2789.45 3257.84 3086.04 3051 3110.5C2903.11 3127.98 2903 2874.88 2903 2874.5C2902.79 2874.93 2651.09 3387.77 2448 3324C2249.72 3261.73 2478.72 2789.57 2479 2789C2106.5 2943 1939.5 2349 2351.5 2337C2533.5 2368.62 2448 2632.5 2351.5 2729.5C2351.92 2729.29 2572.02 2620.15 2589 2777C2599.56 2874.5 2375.75 3232.5 2509.5 3249.5C2641.97 3249.5 2795.72 2936.65 2951.5 2734.5C2969.5 2653 3032 2588 3066.5 2569.5C3082.24 2550.52 3097 2513.22 3145 2519C3232.5 2529.52 3272.5 2671.5 3244.5 2729.5H3536C3597.06 2607.61 3770.9 2381.28 3929.5 2492C4005.47 2545.03 3929.67 2729.1 3929.5 2729.5C3929.44 2729.52 3885.31 2743.66 3859.5 2734.5C3798.78 2712.94 3894.5 2637 3859.5 2569.5C3766.5 2470.5 3449.5 2989.5 3615.5 3075C3818.91 3109.98 4124.72 2734.85 4125 2734.5C4141 2590.5 4424.5 2414.5 4485 2569.5C4536.45 2752.33 4213.08 2828.86 4212.5 2829C4200 3131.5 4719.5 2927 4734.5 2721.5ZM4997 3012C4888 3058 4583.5 3503.5 4780 3518C4997 3518 5157.5 3203 4997 3012ZM5620.57 2992C5511.57 3038 5205 3426.5 5391 3476.5C5595 3512 5777.5 3165.5 5620.57 2992ZM3096.5 2671.5C3040.5 2664.5 2941 3084.5 3064 3031.5C3168 2999 3206.5 2774.5 3196.5 2753C3133 2717 3125 2707.5 3096.5 2671.5ZM4418.5 2594C4397.79 2590.34 4364.67 2593.98 4364.5 2594C4364.5 2594 4236.46 2687.5 4233.5 2746C4295.5 2759 4430.5 2624.5 4418.5 2594ZM2373 2457.5C2251.5 2439 2228 2692 2280 2701C2306.5 2738.49 2435.5 2478 2373 2457.5ZM3203 2697C3209 2693.35 3208 2562.9 3152 2593C3112 2614.5 3172.5 2701 3203 2697Z" fill="black"/>
</g>
<defs>
<filter id="filter0_n_9_30" x="-7.5" y="2077" width="6691.5" height="2067" filterUnits="userSpaceOnUse" color-interpolation-filters="sRGB">
<feFlood flood-opacity="0" result="BackgroundImageFix"/>
<feBlend mode="normal" in="SourceGraphic" in2="BackgroundImageFix" result="shape"/>
<feTurbulence type="fractalNoise" baseFrequency="2 2" stitchTiles="stitch" numOctaves="3" result="noise" seed="1387" />
<feColorMatrix in="noise" type="luminanceToAlpha" result="alphaNoise" />
<feComponentTransfer in="alphaNoise" result="coloredNoise1">
<feFuncA type="discrete" tableValues="0 0 0 0 0 0 0 0 0 0 0 0 0 1 1 1 1 1 1 1 1 1 1 1 1 1 1 1 1 1 1 1 1 1 1 1 1 0 0 0 0 0 0 0 0 0 0 0 0 0 0 0 0 0 0 0 0 0 0 0 0 0 0 0 0 0 0 0 0 0 0 0 0 0 0 0 0 0 0 0 0 0 0 0 0 0 0 0 0 0 0 0 0 0 0 0 0 0 0 0 "/>
</feComponentTransfer>
<feComposite operator="in" in2="shape" in="coloredNoise1" result="noise1Clipped" />
<feFlood flood-color="rgba(0, 0, 0, 0.25)" result="color1Flood" />
<feComposite operator="in" in2="noise1Clipped" in="color1Flood" result="color1" />
<feMerge result="effect1_noise_9_30">
<feMergeNode in="shape" />
<feMergeNode in="color1" />
</feMerge>
</filter>
<linearGradient id="paint0_linear_9_30" x1="8970" y1="2535" x2="-3267.5" y2="2446.5" gradientUnits="userSpaceOnUse">
<stop offset="0.1294" stop-color="#261912"/>
<stop offset="0.44836" stop-color="#DEB464"/>
<stop offset="0.805405" stop-color="#261912"/>
</linearGradient>
<clipPath id="clip0_9_30">
<rect width="6644" height="4143" fill="white"/>
</clipPath>
</defs>
</svg>
